<svg xmlns="http://www.w3.org/2000/svg" width="504" height="1190" viewBox="0 0 504.6 1190.6"><linearGradient id="a" gradientUnits="userSpaceOnUse" x1="-342.99" y1="595.27" x2="847.56" y2="595.27" gradientTransform="rotate(-90 252.283 595.275)"><stop offset="0" stop-color="#4D2D7D"/><stop offset=".14" stop-color="#5F448A"/><stop offset=".32" stop-color="#715B97"/><stop offset=".51" stop-color="#7E6BA0"/><stop offset=".72" stop-color="#8675A5"/><stop offset="1" stop-color="#8878A7"/></linearGradient><path fill="url(#a)" d="M0 0h504.6v1190.6H0z"/><linearGradient id="b" gradientUnits="userSpaceOnUse" x1="29.63" y1="721.42" x2="-192.07" y2="721.42" gradientTransform="rotate(-90 252.283 595.275)"><stop offset="0" stop-color="#8878A7"/><stop offset=".24" stop-color="#7E6BA0"/><stop offset=".67" stop-color="#644A8E"/><stop offset="1" stop-color="#4D2D7D"/></linearGradient><path fill="url(#b)" d="M504.6 998V851.2l-252.3 51.1"/><linearGradient id="c" gradientUnits="userSpaceOnUse" x1="263.03" y1="276.72" x2="159.43" y2="891.34" gradientTransform="rotate(-90 252.283 595.275)"><stop offset="0" stop-color="#4D2D7D"/><stop offset=".3" stop-color="#4F2F7F"/><stop offset=".51" stop-color="#563984"/><stop offset=".69" stop-color="#62488C"/><stop offset=".85" stop-color="#735D98"/><stop offset="1" stop-color="#8878A7"/></linearGradient><path fill="url(#c)" d="M0 601.1v74.3l252.3 40.4L504.6 679v-77.9"/><linearGradient id="d" gradientUnits="userSpaceOnUse" x1="-120.01" y1="595.27" x2="78.27" y2="595.27" gradientTransform="rotate(-90 252.283 595.275)"><stop offset="0" stop-color="#8878A7"/><stop offset=".87" stop-color="#553783"/><stop offset="1" stop-color="#4D2D7D"/></linearGradient><path fill="url(#d)" d="M0 845.7v.1l252.3 56.5 252.3-51.1-252.3-78.6"/><linearGradient id="e" gradientUnits="userSpaceOnUse" x1="278.44" y1="595.27" x2="-70.58" y2="595.27" gradientTransform="rotate(-90 252.283 595.275)"><stop offset="0" stop-color="#4D2D7D"/><stop offset=".21" stop-color="#503280"/><stop offset=".46" stop-color="#5C4088"/><stop offset=".73" stop-color="#6F5895"/><stop offset="1" stop-color="#8878A7"/></linearGradient><path fill="url(#e)" d="M0 675.4v170.3l252.3-73.1 252.3 78.6V679l-252.3 36.8"/><path fill="#8878A7" d="M0 999.4v99.6h156.2l96.1-56.4 96.1 56.4h156.2V998l-252.3 35.9"/><path fill="#C9C0D8" d="M0 999.4v99.6h156.2l96.1-56.4 96.1 56.4h156.2V998l-252.3 35.9"/><linearGradient id="f" gradientUnits="userSpaceOnUse" x1="29.63" y1="469.13" x2="-192.07" y2="469.13" gradientTransform="rotate(-90 252.283 595.275)"><stop offset="0" stop-color="#8878A7"/><stop offset=".24" stop-color="#7E6BA0"/><stop offset=".67" stop-color="#644A8E"/><stop offset="1" stop-color="#4D2D7D"/></linearGradient><path fill="url(#f)" d="M0 845.8v153.6l252.3-97.1"/><path fill="#8878A7" d="M0 1099v91.6l156.2-91.6m96.1-56.4l-96.1 56.4h192.2"/><path fill="#DBD5E5" d="M252.3 1042.6l-96.1 56.4h192.2"/><path fill="#8878A7" d="M504.6 1190.6V1099H348.4"/><path d="M0 1099v91.6l156.2-91.6m348.4 91.6V1099H348.4" fill="#9481B1"/><path fill="#8878A7" d="M156.2 1099L0 1190.6h504.6L348.4 1099"/><path fill="#9D8BB8" d="M156.2 1099L0 1190.6h504.6L348.4 1099"/><path fill="#8878A7" d="M0 999.4l252.3 34.5L504.6 998l-252.3-95.7"/><linearGradient id="g" gradientUnits="userSpaceOnUse" x1="694.25" y1="288.99" x2="694.25" y2="1084.08" gradientTransform="rotate(-90 252.283 595.275)"><stop offset="0" stop-color="#A093B9"/><stop offset=".35" stop-color="#B3A9C7"/><stop offset=".7" stop-color="#BFB7D0"/><stop offset="1" stop-color="#C4BBD3"/></linearGradient><path fill="url(#g)" d="M427.4 134.2c-41.8-2.9-90-16.5-141-30.9-8.2-2.3-16.5-4.7-24.9-7-9 2.3-18 4.7-26.7 7-54.8 14.4-106.6 28.1-151.5 30.9-34.9 2.2-60.9-2.3-83.3-14.7v75.6c30.1 12.4 47.9 16.9 82.7 14.7 44.9-2.9 96.7-16.5 151.5-30.9 81.2-21.4 174.8-46.1 270.3-38.2v-21.2c-20.8 12.4-44.6 17-77.1 14.7z"/><linearGradient id="h" gradientUnits="userSpaceOnUse" x1="537.44" y1="348.35" x2="710.57" y2="1003.6" gradientTransform="rotate(-90 252.283 595.275)"><stop offset="0" stop-color="#A093B9"/><stop offset=".16" stop-color="#9A8CB5"/><stop offset=".4" stop-color="#8B7AAA"/><stop offset=".67" stop-color="#735C99"/><stop offset=".97" stop-color="#513280"/><stop offset="1" stop-color="#4D2D7D"/></linearGradient><path fill="url(#h)" d="M234.3 178.9c-54.8 14.4-106.6 28.1-151.5 30.9-34.9 2.2-52.7-2.3-82.8-14.7v58.4c88.8-9.3 175.7 6.2 274.6 22.4 57.7 9.4 117.3 19.2 165.7 21.7 34.8 1.8 53.9-.6 64.3-2.9v-154c-95.5-7.9-189.1 16.8-270.3 38.2z"/><path fill="#8878A7" d="M261.6 96.3c8.4 2.3 16.7 4.7 24.9 7 51 14.4 99.2 28.1 141 30.9 32.5 2.2 56.3-2.3 77.2-14.7V65.1C419.4 58 336.2 76.9 261.6 96.3z"/><linearGradient id="i" gradientUnits="userSpaceOnUse" x1="799.42" y1="342.99" x2="799.42" y2="1050.18" gradientTransform="rotate(-90 252.283 595.275)"><stop offset="0" stop-color="#8878A7"/><stop offset=".2" stop-color="#8371A3"/><stop offset=".48" stop-color="#745F99"/><stop offset=".81" stop-color="#5D4189"/><stop offset="1" stop-color="#4D2D7D"/></linearGradient><path fill="url(#i)" d="M0 70.1c91.1-17.6 181.8 4 261.6 26.2 74.6-19.3 157.8-38.2 243-31.1V0H0v70.1z"/><linearGradient id="j" gradientUnits="userSpaceOnUse" x1="535.42" y1="847.56" x2="535.42" y2="342.99" gradientTransform="rotate(-90 252.283 595.275)"><stop offset="0" stop-color="#8878A7"/><stop offset=".35" stop-color="#9587B1"/><stop offset="1" stop-color="#B8AECA"/></linearGradient><path fill="url(#j)" d="M440.3 297.6c-48.4-2.5-108-12.3-165.7-21.7C175.7 259.7 88.8 244.1 0 253.5v116.6c18.8 2.3 31.6 4.8 68.9 2.9 52-2.5 116.1-12.3 178.1-21.7 91.3-13.9 179.2-27.3 257.6-24.9v-31.7c-10.4 2.3-29.5 4.7-64.3 2.9z"/><path fill="#4D2D7D" d="M0 601.1h504.6l-252.3-29.2"/><linearGradient id="k" gradientUnits="userSpaceOnUse" x1="697.72" y1="548.61" x2="772.91" y2="414.48" gradientTransform="rotate(-90 252.283 595.275)"><stop offset="0" stop-color="#8878A7"/><stop offset="1" stop-color="#A093B9"/></linearGradient><path fill="url(#k)" d="M83.3 134.2c44.9-2.9 96.7-16.5 151.5-30.9 8.8-2.3 17.7-4.7 26.7-7C181.8 74.1 91.1 52.5 0 70.1v49.5c22.4 12.3 48.5 16.9 83.3 14.6z"/><linearGradient id="l" gradientUnits="userSpaceOnUse" x1="367.22" y1="354.23" x2="500.87" y2="853.01" gradientTransform="rotate(-90 252.283 595.275)"><stop offset="0" stop-color="#8878A7"/><stop offset=".35" stop-color="#9587B1"/><stop offset="1" stop-color="#B8AECA"/></linearGradient><path fill="url(#l)" d="M247 351.3c-62 9.4-126.1 19.2-178.1 21.7-37.3 1.8-50.1-.6-68.9-2.9v68.3c66.1-2.5 140.4 2.5 264.7 11.5 71.7 5.2 182 13.2 239.9 11.6V326.3c-78.4-2.4-166.3 11.1-257.6 25z"/><linearGradient id="m" gradientUnits="userSpaceOnUse" x1="293.08" y1="206.34" x2="293.08" y2="856.49" gradientTransform="rotate(-90 252.283 595.275)"><stop offset="0" stop-color="#4D2D7D"/><stop offset=".31" stop-color="#5C4088"/><stop offset=".93" stop-color="#8372A4"/><stop offset="1" stop-color="#8878A7"/></linearGradient><path fill="url(#m)" d="M0 601.1l252.3-29.2 252.3 29.2V508L0 507.9"/><linearGradient id="n" gradientUnits="userSpaceOnUse" x1="374.68" y1="903.74" x2="374.68" y2="226.36" gradientTransform="rotate(-90 252.283 595.275)"><stop offset="0" stop-color="#B8AECA"/><stop offset=".25" stop-color="#8878A7"/><stop offset="1" stop-color="#4D2D7D"/></linearGradient><path fill="url(#n)" d="M264.7 449.9c-124.3-9-198.6-14-264.7-11.5v69.5l504.6.1v-46.6c-57.9 1.6-168.2-6.4-239.9-11.5z"/></svg>