<svg width="504" height="1190" xmlns="http://www.w3.org/2000/svg" viewBox="0 0 504.6 1190.6" preserveAspectRatio="xMidYMid slice"><linearGradient id="a" gradientUnits="userSpaceOnUse" x1="-342.99" y1="595.27" x2="847.56" y2="595.27" gradientTransform="rotate(-90 252.284 595.275)"><stop offset="0" stop-color="#00548B"/><stop offset=".01" stop-color="#00558C"/><stop offset=".29" stop-color="#00609C"/><stop offset=".6" stop-color="#0066A6"/><stop offset="1" stop-color="#0068A9"/></linearGradient><path fill="url(#a)" d="M0 0h504.6v1190.6H0z"/><linearGradient id="b" gradientUnits="userSpaceOnUse" x1="29.63" y1="721.42" x2="-192.08" y2="721.42" gradientTransform="rotate(-90 252.284 595.275)"><stop offset="0" stop-color="#0068A9"/><stop offset=".5" stop-color="#00609C"/><stop offset="1" stop-color="#00548B"/></linearGradient><path fill="url(#b)" d="M504.6 998V851.2l-252.3 51.1"/><linearGradient id="c" gradientUnits="userSpaceOnUse" x1="189.15" y1="1215.62" x2="189.15" y2="316.67" gradientTransform="rotate(-90 252.284 595.275)"><stop offset=".32" stop-color="#ABCDE3"/><stop offset=".47" stop-color="#A3C7DE"/><stop offset=".7" stop-color="#8DB6D1"/><stop offset=".98" stop-color="#699BBB"/><stop offset="1" stop-color="#6699B9"/></linearGradient><path opacity=".5" fill="url(#c)" d="M0 601v74.4l252.3 40.4L504.6 679v-78"/><linearGradient id="d" gradientUnits="userSpaceOnUse" x1="-120.01" y1="595.27" x2="78.27" y2="595.27" gradientTransform="rotate(-90 252.284 595.275)"><stop offset="0" stop-color="#007DB6"/><stop offset="1" stop-color="#00548B"/></linearGradient><path fill="url(#d)" d="M0 845.7v.1l252.3 56.5 252.3-51.1-252.3-78.6"/><linearGradient id="e" gradientUnits="userSpaceOnUse" x1="278.44" y1="595.27" x2="-70.58" y2="595.27" gradientTransform="rotate(-90 252.284 595.275)"><stop offset="0" stop-color="#00548B"/><stop offset=".33" stop-color="#005E95"/><stop offset=".88" stop-color="#0077B0"/><stop offset="1" stop-color="#007DB6"/></linearGradient><path fill="url(#e)" d="M0 675.4v170.3l252.3-73.1 252.3 78.6V679l-252.3 36.8"/><path fill="#0068A9" d="M0 999.4v99.6h156.2l96.1-56.4 96.1 56.4h156.2V998l-252.3 35.9"/><path fill="#B2D2E5" d="M0 999.4v99.6h156.2l96.1-56.4 96.1 56.4h156.2V998l-252.3 35.9"/><linearGradient id="f" gradientUnits="userSpaceOnUse" x1="29.63" y1="469.14" x2="-192.07" y2="469.14" gradientTransform="rotate(-90 252.284 595.275)"><stop offset="0" stop-color="#0068A9"/><stop offset=".5" stop-color="#00609C"/><stop offset="1" stop-color="#00548B"/></linearGradient><path fill="url(#f)" d="M0 845.8v153.6l252.3-97.1"/><path fill="#0068A9" d="M0 1099v91.6l156.2-91.6m96.1-56.4l-96.1 56.4h192.2"/><path fill="#E5F2F8" d="M252.3 1042.6l-96.1 56.4h192.2"/><path fill="#0068A9" d="M504.6 1190.6V1099H348.4"/><path d="M0 1099v91.6l156.2-91.6m348.4 91.6V1099H348.4" fill="#6699B9"/><path fill="#0068A9" d="M156.2 1099L0 1190.6h504.6L348.4 1099"/><path fill="#8CB2CB" d="M156.2 1099L0 1190.6h504.6L348.4 1099"/><path fill="#007DB6" d="M0 999.4l252.3 34.5L504.6 998l-252.3-95.7"/><linearGradient id="g" gradientUnits="userSpaceOnUse" x1="694.25" y1="288.99" x2="694.25" y2="1084.08" gradientTransform="rotate(-90 252.284 595.275)"><stop offset="0" stop-color="#3386BA"/><stop offset=".2" stop-color="#2F86BA"/><stop offset=".38" stop-color="#2487BC"/><stop offset=".56" stop-color="#1188BE"/><stop offset=".68" stop-color="#0089C0"/></linearGradient><path fill="url(#g)" d="M427.4 134.2c-41.8-2.9-90-16.5-141-30.9-8.2-2.3-16.5-4.6-24.9-7-9 2.3-18 4.7-26.7 7-54.8 14.4-106.6 28.1-151.5 30.9-34.9 2.2-60.9-2.3-83.3-14.7v75.6c30.1 12.4 47.9 16.9 82.8 14.7 44.9-2.9 96.7-16.5 151.5-30.9 81.2-21.4 174.8-46.1 270.3-38.2v-21.2c-20.9 12.4-44.7 16.9-77.2 14.7z"/><linearGradient id="h" gradientUnits="userSpaceOnUse" x1="628.86" y1="847.56" x2="628.86" y2="342.99" gradientTransform="rotate(-90 252.284 595.275)"><stop offset="0" stop-color="#00548B"/><stop offset=".01" stop-color="#01568C"/><stop offset=".12" stop-color="#0C659D"/><stop offset=".26" stop-color="#146FA9"/><stop offset=".46" stop-color="#1876B0"/><stop offset="1" stop-color="#1977B1"/></linearGradient><path fill="url(#h)" d="M234.3 178.9c-54.8 14.4-106.6 28.1-151.5 30.9-34.9 2.2-52.7-2.3-82.8-14.7v58.4c88.8-9.3 175.7 6.2 274.6 22.4 57.7 9.4 117.3 19.2 165.7 21.7 34.8 1.8 53.9-.6 64.3-2.9v-154c-95.5-7.9-189.1 16.8-270.3 38.2z"/><linearGradient id="i" gradientUnits="userSpaceOnUse" x1="748.38" y1="847.56" x2="748.38" y2="604.58" gradientTransform="rotate(-90 252.284 595.275)"><stop offset="0" stop-color="#0D83BA"/><stop offset=".17" stop-color="#097CB5"/><stop offset=".62" stop-color="#026DAC"/><stop offset="1" stop-color="#0068A9"/></linearGradient><path fill="url(#i)" d="M261.6 96.3c8.4 2.3 16.7 4.7 24.9 7 51 14.4 99.2 28.1 141 30.9 32.5 2.2 56.3-2.3 77.2-14.7V65.1C419.4 58 336.2 76.9 261.6 96.3z"/><linearGradient id="j" gradientUnits="userSpaceOnUse" x1="799.42" y1="335.13" x2="799.42" y2="1042.31" gradientTransform="rotate(-90 252.284 595.275)"><stop offset=".06" stop-color="#1977B1"/><stop offset=".55" stop-color="#0E67A0"/><stop offset="1" stop-color="#00548B"/></linearGradient><path fill="url(#j)" d="M0 70.1c91.1-17.6 181.8 4 261.6 26.2 74.6-19.3 157.8-38.2 243-31.1V0H0v70.1z"/><linearGradient id="k" gradientUnits="userSpaceOnUse" x1="535.42" y1="847.56" x2="535.42" y2="342.99" gradientTransform="rotate(-90 252.284 595.275)"><stop offset="0" stop-color="#267FB6"/><stop offset=".31" stop-color="#2180B7"/><stop offset=".7" stop-color="#1184BB"/><stop offset="1" stop-color="#0089C0"/></linearGradient><path fill="url(#k)" d="M440.3 297.6c-48.3-2.5-108-12.3-165.7-21.7C175.7 259.7 88.8 244.1 0 253.5v116.6c18.8 2.3 31.6 4.7 68.9 2.9 52-2.5 116.1-12.3 178.1-21.7 91.3-13.9 179.2-27.3 257.6-24.9v-31.7c-10.4 2.3-29.5 4.7-64.3 2.9z"/><path fill="#007DB6" d="M0 601h504.6l-252.3-29.1"/><linearGradient id="l" gradientUnits="userSpaceOnUse" x1="697.72" y1="548.61" x2="772.91" y2="414.48" gradientTransform="rotate(-90 252.284 595.275)"><stop offset="0" stop-color="#0068A9"/><stop offset=".69" stop-color="#0D83BA"/></linearGradient><path fill="url(#l)" d="M83.3 134.2c44.9-2.9 96.7-16.5 151.5-30.9 8.8-2.3 17.7-4.7 26.7-7C181.8 74.1 91.1 52.5 0 70.1v49.5c22.4 12.3 48.5 16.8 83.3 14.6z"/><linearGradient id="m" gradientUnits="userSpaceOnUse" x1="367.22" y1="354.23" x2="500.87" y2="853.01" gradientTransform="rotate(-90 252.284 595.275)"><stop offset="0" stop-color="#0068A9"/><stop offset=".53" stop-color="#0077B3"/><stop offset="1" stop-color="#0089C0"/></linearGradient><path fill="url(#m)" d="M247 351.3c-62 9.4-126.1 19.2-178.1 21.7-37.3 1.8-50.1-.6-68.9-2.9v68.3c66.1-2.5 140.4 2.5 264.7 11.5 71.7 5.2 182 13.2 239.9 11.6V326.3c-78.4-2.4-166.3 11.1-257.6 25z"/><linearGradient id="n" gradientUnits="userSpaceOnUse" x1="293.08" y1="206.34" x2="293.08" y2="856.5" gradientTransform="rotate(-90 252.284 595.275)"><stop offset="0" stop-color="#00548B"/><stop offset=".28" stop-color="#005E9A"/><stop offset=".63" stop-color="#0066A5"/><stop offset="1" stop-color="#0068A9"/></linearGradient><path fill="url(#n)" d="M0 601l252.3-29.1L504.6 601v-93L0 507.9"/><linearGradient id="o" gradientUnits="userSpaceOnUse" x1="374.68" y1="903.74" x2="374.68" y2="226.36" gradientTransform="rotate(-90 252.284 595.275)"><stop offset="0" stop-color="#007DB6"/><stop offset=".16" stop-color="#006BA3"/><stop offset=".35" stop-color="#005E96"/><stop offset=".58" stop-color="#00578E"/><stop offset="1" stop-color="#00548B"/></linearGradient><path fill="url(#o)" d="M264.7 449.9c-124.3-9-198.6-14-264.7-11.5v69.5l504.6.1v-46.6c-57.9 1.6-168.2-6.4-239.9-11.5z"/></svg>