<svg xmlns="http://www.w3.org/2000/svg" width="153.3" height="84.2" viewBox="0 0 153.3 84.2"><style>.st0{fill:url(#SVGID_1_)}.st1{fill:url(#SVGID_2_)}.st2{fill:url(#SVGID_3_)}.st3{fill:url(#SVGID_4_)}.st4{fill:url(#SVGID_5_)}.st5{fill:url(#SVGID_6_)}.st6{fill:url(#SVGID_7_)}.st7{fill:url(#SVGID_8_)}</style><g transform="translate(0 -1)"><linearGradient id="SVGID_1_" gradientUnits="userSpaceOnUse" x1="1413.79" y1="1581.8" x2="1413.79" y2="1077.2" gradientTransform="matrix(0 -1 -1 0 1329.495 1513.105)"><stop offset="0" stop-color="#f7f8f8"/><stop offset=".5" stop-color="#ebeceb"/><stop offset="1" stop-color="#e6e7e7"/></linearGradient><path class="st0" d="M175.1 80.2c-41.8-2.9-90-16.5-141-30.9-8.2-2.3-16.4-4.6-24.9-7-9 2.3-18 4.7-26.7 7C-72.3 63.7-124.1 77.4-169 80.2c-34.9 2.2-60.9-2.3-83.3-14.7v75.6c30.1 12.4 47.9 16.9 82.8 14.7 44.9-2.9 96.7-16.5 151.5-30.9 81.2-21.4 174.8-46.1 270.3-38.2V65.5c-20.9 12.4-44.7 16.9-77.2 14.7z"/><linearGradient id="SVGID_2_" gradientUnits="userSpaceOnUse" x1="1294.52" y1="1244.76" x2="1446.92" y2="1415.83" gradientTransform="matrix(0 -1 -1 0 1329.495 1513.105)"><stop offset="0" stop-color="#f2f2f2"/><stop offset="1" stop-color="#e6e7e7"/></linearGradient><path class="st1" d="M-18 124.9c-54.8 14.4-106.6 28.1-151.5 30.9-34.9 2.2-52.7-2.3-82.8-14.7v58.4c88.8-9.3 175.7 6.2 274.6 22.4 57.7 9.4 117.3 19.2 165.7 21.7 34.8 1.8 54-.6 64.3-2.9v-154c-95.5-8-189.1 16.8-270.3 38.2z"/><linearGradient id="SVGID_3_" gradientUnits="userSpaceOnUse" x1="1430.87" y1="1099.77" x2="1505.27" y2="1232.24" gradientTransform="matrix(0 -1 -1 0 1329.495 1513.105)"><stop offset="0" stop-color="#f2f2f2"/><stop offset="1" stop-color="#ececed"/></linearGradient><path class="st2" d="M9.3 42.3c8.4 2.3 16.7 4.7 24.9 7 51 14.4 99.2 28.1 141 30.9 32.5 2.2 56.3-2.3 77.2-14.7V11.1C167.1 4 83.9 22.9 9.3 42.3z"/><linearGradient id="SVGID_4_" gradientUnits="userSpaceOnUse" x1="1518.95" y1="1581.8" x2="1518.95" y2="1077.2" gradientTransform="matrix(0 -1 -1 0 1329.495 1513.105)"><stop offset="0" stop-color="#f7f8f8"/><stop offset="1" stop-color="#e6e7e7"/></linearGradient><path class="st3" d="M-252.3 16.1c91.1-17.6 181.8 4 261.6 26.2C83.9 23 167.1 4.1 252.3 11.2V-54h-504.6v70.1z"/><linearGradient id="SVGID_5_" gradientUnits="userSpaceOnUse" x1="1254.96" y1="1581.8" x2="1254.96" y2="1077.2" gradientTransform="matrix(0 -1 -1 0 1329.495 1513.105)"><stop offset="0" stop-color="#f2f2f2"/><stop offset="1" stop-color="#e6e7e7"/></linearGradient><path class="st4" d="M188 243.6c-48.4-2.5-108-12.3-165.7-21.7-98.9-16.2-185.8-31.8-274.6-22.4v116.6c18.8 2.3 31.6 4.7 68.9 2.9 52-2.5 116.1-12.3 178.1-21.7C86 283.4 173.9 270 252.3 272.4v-31.7c-10.4 2.3-29.5 4.7-64.3 2.9z"/><linearGradient id="SVGID_6_" gradientUnits="userSpaceOnUse" x1="1417.22" y1="1376.17" x2="1492.42" y2="1510.3" gradientTransform="matrix(0 -1 -1 0 1329.495 1513.105)"><stop offset="0" stop-color="#f2f2f2"/><stop offset="1" stop-color="#ececed"/></linearGradient><path class="st5" d="M-169 80.2c44.9-2.9 96.7-16.5 151.5-30.9 8.8-2.3 17.7-4.7 26.7-7-79.7-22.2-170.4-43.8-261.5-26.2v49.4c22.4 12.4 48.5 16.9 83.3 14.7z"/><linearGradient id="SVGID_7_" gradientUnits="userSpaceOnUse" x1="1116.36" y1="1074.31" x2="1248.66" y2="1567.95" gradientTransform="matrix(0 -1 -1 0 1329.495 1513.105)"><stop offset="0" stop-color="#f7f8f8"/><stop offset="1" stop-color="#e6e7e7"/></linearGradient><path class="st6" d="M-5.3 297.3c-62 9.4-126.1 19.2-178.1 21.7-37.3 1.8-50.1-.6-68.9-2.9v68.3c66.1-2.5 140.4 2.5 264.7 11.5 71.7 5.2 182 13.2 239.9 11.6V272.3c-78.4-2.4-166.3 11.1-257.6 25z"/><linearGradient id="SVGID_8_" gradientUnits="userSpaceOnUse" x1="1135.4" y1="1572.24" x2="1024.4" y2="1063.31" gradientTransform="matrix(0 -1 -1 0 1329.495 1513.105)"><stop offset="0" stop-color="#f7f8f8"/><stop offset="1" stop-color="#e6e7e7"/></linearGradient><path class="st7" d="M12.4 395.9c-124.3-9-198.6-14-264.7-11.5v69.5l504.6.1v-46.6C194.4 409 84.1 401 12.4 395.9z"/></g></svg>