<svg xmlns="http://www.w3.org/2000/svg" viewBox="0 0 40 26"><title>Icon--address-consumer-data-black-48x48</title><rect x="20" y="7" width="16" height="2"/><rect x="20" y="12" width="16" height="2"/><rect x="20" y="17" width="12" height="2"/><path d="M30.95,10H4V36H44V10H30.95ZM9.32,34a5.53,5.53,0,0,1,5.82-5.82A5.53,5.53,0,0,1,21,34H9.32ZM11.8,22a3.34,3.34,0,1,1,3.34,3.34A3.34,3.34,0,0,1,11.8,22ZM42,34H23a7.9,7.9,0,0,0-5.25-7.39,5.34,5.34,0,1,0-5.14,0A7.9,7.9,0,0,0,7.32,34H6V12H42V34Z" transform="translate(-4 -10)"/></svg>