<?xml version="1.0" encoding="utf-8"?>
<!-- Generator: Adobe Illustrator 19.2.0, SVG Export Plug-In . SVG Version: 6.00 Build 0)  -->
<svg version="1.1" xmlns="http://www.w3.org/2000/svg" xmlns:xlink="http://www.w3.org/1999/xlink" x="0px" y="0px"
	 viewBox="0 0 48 48" enable-background="new 0 0 48 48" xml:space="preserve">
   <g>
 		<path fill="none" stroke="#000000" stroke-width="2" stroke-miterlimit="10" d="M24,20L24,20c2.2,0,4,1.8,4,4v10c0,2.2-1.8,4-4,4
 			H9c-2.2,0-4-1.8-4-4V24c0-2.2,1.8-4,4-4h6"/>
 		<path fill="none" stroke="#000000" stroke-width="2" stroke-miterlimit="10" d="M24,29L24,29c-2.2,0-4-1.8-4-4V14c0-2.2,1.8-4,4-4
 			h15c2.2,0,4,1.8,4,4v11c0,2.2-1.8,4-4,4h-6"/>
 	</g>
</svg>
