<svg xmlns="http://www.w3.org/2000/svg" viewBox="0 0 40 35"><title>Icon--appointment-black-48x48</title><path d="M17.29,27.88a12.92,12.92,0,0,0,2-1.41,3.17,3.17,0,0,0,1.27-2.25,0.83,0.83,0,0,0-.86-0.95,1.08,1.08,0,0,0-1,1L17.3,24a2.28,2.28,0,0,1,2.43-1.88,2.08,2.08,0,0,1,2.33,2.14,3.29,3.29,0,0,1-1.19,2.44,8.84,8.84,0,0,1-1.64,1.19h2.9V29H17.29V27.88Z" transform="translate(-4 -5)"/><path d="M26,27.71h-3.3v-1.2l3.09-4.38h1.61v4.44h0.85v1.14H27.43V29H26V27.71Zm-2-1.14h2v-3Z" transform="translate(-4 -5)"/><path d="M42,28.11V8H33V5H31V8H15V5H13V8H4V38H32.11A7,7,0,0,0,42,28.11ZM6,10h7v2h2V10H31v2h2V10h7v5H6V10Zm0,7H40v9.68A7,7,0,0,0,30.68,36H6V17ZM37,38a5,5,0,1,1,5-5A5,5,0,0,1,37,38Z" transform="translate(-4 -5)"/><polygon points="36 27 34 27 34 25 32 25 32 27 30 27 30 29 32 29 32 31 34 31 34 29 36 29 36 27"/></svg>
