<?xml version="1.0" standalone="no"?>
<!DOCTYPE svg PUBLIC "-//W3C//DTD SVG 20010904//EN"
 "http://www.w3.org/TR/2001/REC-SVG-20010904/DTD/svg10.dtd">
<svg version="1.0" xmlns="http://www.w3.org/2000/svg"
 width="95.000000pt" height="95.000000pt" viewBox="0 0 95.000000 95.000000"
 preserveAspectRatio="xMidYMid meet">
<metadata>
Created by potrace 1.15, written by Peter Selinger 2001-2017
</metadata>
<g transform="translate(0.000000,95.000000) scale(0.100000,-0.100000)"
fill="#000000" stroke="none">
<path d="M270 830 l0 -30 -100 0 -100 0 0 -320 0 -320 400 0 400 0 0 320 0
320 -100 0 -100 0 0 30 c0 23 -4 30 -20 30 -16 0 -20 -7 -20 -30 l0 -30 -155
0 -155 0 0 30 c0 25 -4 30 -25 30 -21 0 -25 -5 -25 -30z m0 -95 c0 -9 9 -15
25 -15 16 0 25 6 25 15 0 13 24 15 155 15 131 0 155 -2 155 -15 0 -8 9 -15 20
-15 11 0 20 7 20 15 0 12 16 15 80 15 l80 0 0 -55 0 -55 -355 0 -355 0 0 55 0
55 75 0 c60 0 75 -3 75 -15z m560 -340 l0 -195 -355 0 -355 0 0 195 0 195 355
0 355 0 0 -195z"/>
</g>
</svg>
