<svg xmlns="http://www.w3.org/2000/svg" viewBox="0 0 39.98 35"><title>Icon--calendar-black-48x48</title><path d="M42,10V38H6V10H42m2-2H4V40H44V8h0Z" transform="translate(-4.01 -5)"/><path d="M42,10v5.71H6V10H42m2-2H4v9.71H44V8h0Z" transform="translate(-4.01 -5)"/><path d="M16.25,30.12a17.42,17.42,0,0,0,2.64-1.9,4.27,4.27,0,0,0,1.72-3,1.12,1.12,0,0,0-1.16-1.28c-0.7,0-1.11.41-1.38,1.39l-1.81-.44a3.08,3.08,0,0,1,3.27-2.54c1.95,0,3.15,1.11,3.15,2.89a4.44,4.44,0,0,1-1.6,3.29,11.91,11.91,0,0,1-2.2,1.6h3.91V31.7H16.25V30.12Z" transform="translate(-4.01 -5)"/><path d="M28,29.89H23.58V28.28l4.16-5.9h2.17v6h1.15v1.54H29.91V31.7H28V29.89Zm-2.64-1.54h2.73v-4Z" transform="translate(-4.01 -5)"/><rect x="9.99" width="2" height="7"/><rect x="27.99" width="2" height="7"/></svg>