<svg xmlns="http://www.w3.org/2000/svg" viewBox="0 0 37 40"><title>Icon--confirmation-black-48x48</title><rect x="7" y="15" width="13" height="2"/><rect x="7" y="10" width="13" height="2"/><rect x="7" y="20" width="13" height="2"/><rect x="7" y="25" width="9" height="2"/><path d="M44,31.67a8.2,8.2,0,0,0-7-8.1V4H7V44H37.07V39.77A8.2,8.2,0,0,0,44,31.67ZM9,42V6H35V23.51a8.2,8.2,0,0,0,.06,16.33V42H9Zm26.8-4.13a6.2,6.2,0,1,1,6.2-6.2A6.21,6.21,0,0,1,35.8,37.87Z" transform="translate(-7 -4)"/><polygon points="28.15 31.08 25.43 28.95 26.67 27.38 27.81 28.27 30.42 24.92 32 26.15 28.15 31.08"/></svg>