<?xml version="1.0" encoding="utf-8"?>
<!-- Generator: Adobe Illustrator 19.2.0, SVG Export Plug-In . SVG Version: 6.00 Build 0)  -->
<svg version="1.1" xmlns="http://www.w3.org/2000/svg" xmlns:xlink="http://www.w3.org/1999/xlink" x="0px" y="0px"
	 viewBox="0 0 48 48" enable-background="new 0 0 48 48" xml:space="preserve">
	<g>
		<path d="M31.6,29.2H16.4c-1.8,0-3.4-1.5-3.4-3.4v-0.2c0,0,0,0,0-0.1l0,0c0-3.4,2.4-6.2,5.7-6.8c0.5-2.5,2.7-4.3,5.3-4.3
			c2.4,0,4.4,1.5,5.1,3.6c0.5-0.2,1-0.3,1.6-0.3c2.4,0,4.3,1.9,4.3,4.3c0,0,0,0,0,0l0,3.7C35,27.7,33.5,29.2,31.6,29.2z M15,25.8
			L15,25.8c0,0.8,0.6,1.4,1.4,1.4h15.3c0.7,0,1.4-0.6,1.4-1.4l0-3.7c0-1.3-1-2.3-2.3-2.3c-0.6,0-1.2,0.2-1.6,0.6
			c-0.3,0.3-0.7,0.4-1.1,0.2c-0.4-0.1-0.6-0.5-0.6-0.9c-0.1-1.8-1.6-3.3-3.4-3.3c-1.8,0-3.3,1.4-3.4,3.2c0,0.5-0.4,0.9-1,0.9
			C17,20.8,15,23,15,25.6l0,0.1C15,25.7,15,25.7,15,25.8z"/>
	</g>
	<g>
		<path fill="none" stroke="#000000" stroke-width="2" stroke-miterlimit="10" d="M5,24"/>
	</g>
	<g>
		<path fill="none" stroke="#000000" stroke-width="2" stroke-miterlimit="10" d="M24,43"/>
	</g>
	<path d="M28.3,41.5C26.9,41.8,25.5,42,24,42c-9.9,0-18-8.1-18-18c0-5.6,2.6-10.8,7-14.2V15h2V7h-1.5l0,0c0,0,0,0,0,0H7v2h3.8
		C6.5,12.8,4,18.2,4,24c0,11,9,20,20,20c1.6,0,3.2-0.2,4.8-0.6L28.3,41.5z"/>
	<path d="M44,24c0-11-9-20-20-20c-1.6,0-3.2,0.2-4.8,0.6l0.5,1.9C21.1,6.2,22.5,6,24,6c9.9,0,18,8.1,18,18c0,5.6-2.6,10.8-7,14.2V33
		h-2v8h1.5l0,0c0,0,0,0,0,0H41v-2h-3.8C41.5,35.2,44,29.8,44,24z"/>

</svg>
