<?xml version="1.0" encoding="utf-8"?>
<!-- Generator: Adobe Illustrator 19.2.0, SVG Export Plug-In . SVG Version: 6.00 Build 0)  -->
<svg version="1.1" xmlns="http://www.w3.org/2000/svg" xmlns:xlink="http://www.w3.org/1999/xlink" x="0px" y="0px"
	 viewBox="0 0 48 48" enable-background="new 0 0 48 48" xml:space="preserve">
	<g>
		<path d="M32.6,42h-3.8c-1.7,0-3-1.4-3-3c0-1.7,1.3-3,3-3h3.8c1.3,0,2.4,1,2.8,2h1.4v-5c-1.5-0.5-2.5-1.9-2.5-3.5v-7
			c0-1.5,0.9-2.8,2.2-3.4C35.6,12.9,30.6,9,24,9C17.4,9,12.4,12.9,11.3,19c1.4,0.5,2.4,1.9,2.4,3.4v7c0,2-1.7,3.7-3.8,3.7
			S6,31.4,6,29.4v-7c0-1.7,1.3-3.3,3.1-3.6c0.7-3.5,2.5-6.4,5.3-8.6C17.1,8.2,20.5,7,24,7c3.6,0,6.9,1.1,9.6,3.3
			c2.7,2.1,4.5,5.1,5.2,8.6c1.8,0.3,3.1,1.9,3.1,3.6v7c0,1.6-1.3,3.1-3,3.6v4.2c0,0.7,0,1.6-0.5,2.1C38,39.7,37.4,40,36.9,40h-1.5
			C35,41,33.9,42,32.6,42z M28.8,38.1c-0.4,0-0.8,0.4-0.8,0.9c0,0.5,0.4,0.9,0.8,0.9h3.8c0.4,0,0.8-0.4,0.8-0.9
			c0-0.5-0.4-0.9-0.8-0.9H28.8z M38.2,20.9c-0.9,0-1.7,0.7-1.7,1.5v7c0,0.8,0.8,1.5,1.7,1.5c0.9,0,1.7-0.7,1.7-1.5v-7
			C39.8,21.6,39.1,20.9,38.2,20.9z M9.8,20.9c-0.9,0-1.7,0.7-1.7,1.5v7c0,0.8,0.8,1.5,1.7,1.5c0.9,0,1.7-0.7,1.7-1.5v-7
			C11.5,21.6,10.7,20.9,9.8,20.9z"/>
	</g>
</svg>
