<svg xmlns="http://www.w3.org/2000/svg" viewBox="0 0 32 40"><title>Icon--delete-black-48x48</title><path d="M34.94,16V40a2,2,0,0,1-2,2H15.06a2,2,0,0,1-2-2V16H34.94m2-2H11.06V40a4,4,0,0,0,4,4H32.94a4,4,0,0,0,4-4V14h0Z" transform="translate(-8 -4)"/><rect x="9" y="11" width="2" height="15"/><rect x="15" y="11" width="2" height="15"/><rect x="21" y="11" width="2" height="15"/><path d="M31,8V6a2,2,0,0,0-2-2H19a2,2,0,0,0-2,2V8H8v8H40V8H31ZM19,6H29V8H19V6Zm19,8H10V10H38v4Z" transform="translate(-8 -4)"/></svg>