<svg xmlns="http://www.w3.org/2000/svg" viewBox="0 0 39.82 39.97"><title>Icon--delivery-black-48x48</title><path d="M36.94,18.88l1.82,8.45L21.61,31,19.8,22.57l17.15-3.69m1.53-2.38L17.42,21l2.66,12.36,21.06-4.53L38.48,16.5h0Z" transform="translate(-4.14 -4)"/><path d="M31,6.38l1.58,7.37-14,3L17,9.39l14-3M32.53,4L14.59,7.86,17,19.14,35,15.28,32.53,4h0Z" transform="translate(-4.14 -4)"/><path d="M44,34.57l-0.42-2-21,4.55a4.71,4.71,0,0,0-4.85-2.89L11.81,7.08A3.22,3.22,0,0,0,8,4.61l-3.84.83,0.42,2L8.4,6.56a1.22,1.22,0,0,1,1.45.94l5.9,27.35A4.86,4.86,0,0,0,17.68,44l0.41,0a4.87,4.87,0,0,0,4.84-4.46c0-.13,0-0.26,0-0.38ZM17.85,42a2.86,2.86,0,0,1,.24-5.72h0.24A2.86,2.86,0,0,1,17.85,42Z" transform="translate(-4.14 -4)"/></svg>