<?xml version="1.0" encoding="utf-8"?>
<!-- Generator: Adobe Illustrator 19.2.0, SVG Export Plug-In . SVG Version: 6.00 Build 0)  -->
<svg version="1.1" xmlns="http://www.w3.org/2000/svg" xmlns:xlink="http://www.w3.org/1999/xlink" x="0px" y="0px"
	 viewBox="0 0 48 48" enable-background="new 0 0 48 48" xml:space="preserve">
	<path d="M42.9,8c-0.2-1.3-0.9-2.4-1.9-3.1s-2.3-1.1-3.5-0.9c-1.3,0.2-2.4,0.9-3.1,1.9l-13.9,19c0,0,0,0,0,0
		c-0.1,0.1-0.1,0.2-0.1,0.3c0,0,0,0.1,0,0.1c0,0,0,0,0,0.1l-0.9,7.5c0,0.4,0.1,0.7,0.4,0.9c0.2,0.1,0.4,0.2,0.6,0.2
		c0.1,0,0.3,0,0.4-0.1l7-3.1c0,0,0,0,0,0c0,0,0,0,0,0c0.1-0.1,0.2-0.2,0.3-0.3c0,0,0,0,0,0l13.9-19C42.8,10.5,43.1,9.3,42.9,8z
		 M27.2,28.6l-4.5-3.3L34,9.9l4.5,3.3L27.2,28.6z M21.6,31.4l0.5-4.1l3.3,2.4L21.6,31.4z M40.4,10.4l-0.8,1.2l-4.5-3.3L36,7.1
		c0.4-0.6,1.1-1,1.8-1.1c0.7-0.1,1.5,0.1,2.1,0.5s1,1.1,1.1,1.8C41.1,9.1,40.9,9.8,40.4,10.4z"/>
	<g>
		<rect x="4" y="32" width="13" height="2"/>
	</g>
</svg>
