<svg id="Icons" xmlns="http://www.w3.org/2000/svg" width="40.53" height="40.53" viewBox="0 0 40.53 40.53"><title>Ic-OverlayAlert</title><path d="M28.17.27H11.65L.27,11.24v17L11.65,40.27H28.17l12.1-12.05v-17Zm-9.9,10h4V16.5l-.64,6.76H18.88l-.61-6.76Zm2,20.34A2.55,2.55,0,0,1,17.69,28a2.57,2.57,0,1,1,5.15,0A2.54,2.54,0,0,1,20.28,30.6Z" fill="#e20015"/><polygon points="18.27 10.27 18.27 16.5 18.88 23.27 21.63 23.27 22.27 16.5 22.27 10.27 18.27 10.27" fill="#fff"/><circle cx="20.27" cy="28.03" r="2.57" fill="#fff"/></svg>