<?xml version="1.0" encoding="utf-8"?>
<!-- Generator: Adobe Illustrator 19.1.0, SVG Export Plug-In . SVG Version: 6.00 Build 0)  -->
<svg version="1.1" xmlns="http://www.w3.org/2000/svg" xmlns:xlink="http://www.w3.org/1999/xlink" x="0px" y="0px" width="48px"
	 height="48px" viewBox="0 0 48 48" enable-background="new 0 0 48 48" xml:space="preserve">
	<path fill="#000000" d="M28.2,14v3.5c0,0-1.7-0.1-2.5,0c-0.3,0-0.7,0.3-0.7,0.9v2.3h3.3L27.8,24H25v10h-4.1V24h-2.1v-3.3h2.1
		c0,0,0-2.5,0-3.2s0.6-3.4,3.6-3.5S28.2,14,28.2,14z"/>
	<g>
		<path fill="#000000" d="M24,6c9.9,0,18,8.1,18,18s-8.1,18-18,18S6,33.9,6,24S14.1,6,24,6 M24,4C13,4,4,13,4,24s9,20,20,20
			s20-9,20-20S35,4,24,4L24,4z"/>
	</g>
</svg>
