<?xml version="1.0" encoding="utf-8"?>
<!-- Generator: Adobe Illustrator 19.1.0, SVG Export Plug-In . SVG Version: 6.00 Build 0)  -->
<svg version="1.1" xmlns="http://www.w3.org/2000/svg" xmlns:xlink="http://www.w3.org/1999/xlink" x="0px" y="0px" width="48px"
	 height="48px" viewBox="0 0 48 48" enable-background="new 0 0 48 48" xml:space="preserve">
<g id="Grid" display="none">
	<g display="inline">
		<g opacity="0.2">
			<path fill="#FF0000" d="M44,4v40H4V4H44 M48,0H0v48h48V0L48,0z"/>
		</g>
		<g opacity="0.2">
			<path fill="#00FF00" d="M43.5,8.5v31h-39v-31H43.5 M44,8H4v32h40V8L44,8z"/>
		</g>
		<g opacity="0.2">
			<path fill="#FF0000" d="M24,4.5c10.8,0,19.5,8.7,19.5,19.5c0,10.8-8.7,19.5-19.5,19.5S4.5,34.8,4.5,24C4.5,13.2,13.2,4.5,24,4.5
				 M24,4C13,4,4,13,4,24v0c0,11,9,20,20,20s20-9,20-20v0C44,13,35,4,24,4L24,4z"/>
		</g>
		<g opacity="0.2">
			<path fill="#000000FF" d="M39.5,8.5v31h-31v-31H39.5 M40,8H8v32h32V8L40,8z"/>
		</g>
		<g opacity="0.2">
			<path fill="#00FF00" d="M39.5,4.5v39h-31v-39H39.5 M40,4H8v40h32V4L40,4z"/>
		</g>
		<g opacity="0.2">
			<path fill="#000000FF" d="M33.5,14.5v19h-19v-19H33.5 M34,14H14v20h20V14L34,14z"/>
		</g>
	</g>
</g>
<g id="Icons">
	<g>
		<path fill="#000000" d="M24,6c9.9,0,18,8.1,18,18s-8.1,18-18,18S6,33.9,6,24S14.1,6,24,6 M24,4c-11.1,0-20,9-20,20s9,20,20,20
			s20-9,20-20S35.1,4,24,4L24,4z"/>
	</g>
	<g>
		<g>
			<path fill="#000000" d="M24.5,19c0.2,0.6,0.3,0.9,0.3,1.4c0,2.3-2,3.8-5,3.8c-0.8,0-1.4-0.1-2.2-0.3c-0.3,0.2-0.5,0.5-0.5,0.8
				c0,0.6,0.4,0.9,1.6,0.9h3c2.8,0,4.3,1.2,4.3,3.3c0,2.7-2.3,4.2-6.4,4.2c-3.5,0-5.6-1.1-5.6-3c0-1,0.6-1.7,1.9-2.3
				c-0.9-0.5-1.3-1.3-1.3-2.2c0-1,0.5-1.8,1.7-2.4c-1-0.8-1.4-1.7-1.4-2.8c0-2.3,2.1-4,4.9-4c1.1,0,2,0.3,3.1,0.8l3.2-0.7V19H24.5z
				 M18.6,28.3c-0.4,0-0.6,0-0.8,0C17.3,28.6,17,29,17,29.4c0,0.9,0.8,1.3,2.7,1.3c2.1,0,3.2-0.5,3.2-1.5c0-0.7-0.5-1-1.6-1H18.6z
				 M18,20.3c0,1.2,0.7,1.9,1.8,1.9c1.1,0,1.8-0.7,1.8-1.9c0-1.1-0.7-1.8-1.8-1.8C18.7,18.5,18,19.2,18,20.3z"/>
		</g>
		<polygon fill="#000000" points="32.1,16.8 32.1,14.9 30,14.9 30,16.8 28.1,16.8 28.1,18.9 30,18.9 30,21.1 32.1,21.1 32.1,18.9 
			34,18.9 34,16.8 		"/>
	</g>
</g>
<g id="Titles" display="none">
</g>
<g id="Layer_1">
</g>
<g id="Isolation_Mode">
</g>
</svg>
