<?xml version="1.0" encoding="utf-8"?>
<!-- Generator: Adobe Illustrator 19.2.0, SVG Export Plug-In . SVG Version: 6.00 Build 0)  -->
<svg version="1.1" xmlns="http://www.w3.org/2000/svg" xmlns:xlink="http://www.w3.org/1999/xlink" x="0px" y="0px"
	 viewBox="0 0 48 48" enable-background="new 0 0 48 48" xml:space="preserve">
	<g>
		<path d="M42.6,10.3c-2.1-2.1-4.9-3.3-8-3.3c-3,0-5.8,1.2-7.9,3.3l-1.4-1.4C27.8,6.4,31.1,5,34.7,5c3.5,0,6.9,1.4,9.4,3.9
			L42.6,10.3z"/>
	</g>
	<g>
		<path d="M29.9,13.4L28.5,12c1.7-1.7,3.9-2.6,6.2-2.6c2.3,0,4.6,0.9,6.2,2.6l-1.4,1.4c-1.3-1.3-3-2-4.8-2
			C32.9,11.4,31.2,12.1,29.9,13.4z"/>
	</g>
	<g>
		<path d="M36.3,16.6c-0.9-0.9-2.4-0.9-3.3,0l-1.4-1.4c1.7-1.7,4.4-1.7,6.1,0L36.3,16.6z"/>
	</g>
	<g>
		<path d="M9.1,26.6L8,40h9l-1.2-13.4c-0.9,0.8-2,1.3-3.3,1.3C11.2,27.9,10,27.4,9.1,26.6z"/>
		<path d="M16.5,15.7l-2.8,2.4c1.8,0.4,3.3,1.9,3.7,3.7l2.4-2.9c-0.8-0.1-1.6-0.5-2.1-1.1C17,17.2,16.6,16.5,16.5,15.7z"/>
		<path d="M21.8,13.6c-0.4-0.4-0.9-0.6-1.4-0.6c-0.5,0-1,0.2-1.4,0.6c-0.8,0.8-0.8,2.1,0,2.8c0.4,0.4,0.9,0.6,1.4,0.6
			c0.5,0,1-0.2,1.4-0.6C22.6,15.6,22.6,14.4,21.8,13.6z"/>
		<g>
			<path d="M33.1,23c0.3,0.6,0.4,1.3,0.2,2H35v2h2v-4H33.1z"/>
			<path d="M29,27.8l0,3.2l4,0l0-2l-2,0l0-1.3c-0.4,0.1-0.7,0.2-1.1,0.2C29.6,27.9,29.3,27.8,29,27.8z"/>
			<path d="M28.4,21.2l-4.3-5c-0.2,0.6-0.5,1.1-1,1.6c-0.4,0.4-0.9,0.7-1.4,0.9l4.9,4.2c0.2-0.4,0.4-0.8,0.7-1.1
				C27.7,21.6,28.1,21.4,28.4,21.2z"/>
			<path d="M30.9,23.3c-0.3-0.3-0.7-0.4-1.1-0.4c-0.4,0-0.8,0.1-1.1,0.4c-0.6,0.6-0.6,1.5,0,2.1c0.3,0.3,0.7,0.4,1.1,0.4
				s0.8-0.1,1.1-0.4C31.5,24.9,31.5,23.9,30.9,23.3z"/>
		</g>
		<circle cx="12.5" cy="22.9" r="3"/>
	</g>
</svg>
