<?xml version="1.0" encoding="utf-8"?>
<!-- Generator: Adobe Illustrator 19.2.0, SVG Export Plug-In . SVG Version: 6.00 Build 0)  -->
<svg version="1.1" xmlns="http://www.w3.org/2000/svg" xmlns:xlink="http://www.w3.org/1999/xlink" x="0px" y="0px"
	 viewBox="0 0 48 48" enable-background="new 0 0 48 48" xml:space="preserve">
	<g>
		<path d="M25.3,9.3c-2.1-2.1-4.9-3.3-8-3.3s-5.8,1.2-7.9,3.3L8,7.9C10.5,5.4,13.8,4,17.4,4s6.9,1.4,9.4,3.9L25.3,9.3z"/>
	</g>
	<g>
		<path d="M12.6,12.4L11.1,11c1.7-1.7,3.9-2.6,6.2-2.6c2.3,0,4.6,0.9,6.2,2.6l-1.4,1.4c-1.3-1.3-3-2-4.8-2
			C15.6,10.5,13.8,11.2,12.6,12.4z"/>
	</g>
	<g>
		<path d="M19,15.6c-0.9-0.9-2.4-0.9-3.3,0l-1.4-1.4c1.7-1.7,4.4-1.7,6.1,0L19,15.6z"/>
	</g>
	<path d="M37,10l0.9,28H10V25.5l3-1.7v0.6v3.4l3.1-1.6l4.9-2.6v0.9v3.2l2.5-1.4l5.5-2.9v3.1V28h2.3h0.8H34l0.1-1.7L34.9,10H37 M39,8
		h-6l-0.9,18H31v-5.8l-8,4.2v-4.2l-8,4.2v-4.2l-7,4.2V40h32L39,8L39,8z"/>
</svg>
