<?xml version="1.0" encoding="utf-8"?>
<!-- Generator: Adobe Illustrator 19.2.0, SVG Export Plug-In . SVG Version: 6.00 Build 0)  -->
<svg version="1.1" xmlns="http://www.w3.org/2000/svg" xmlns:xlink="http://www.w3.org/1999/xlink" x="0px" y="0px"
	 viewBox="0 0 48 48" enable-background="new 0 0 48 48" xml:space="preserve">
	<path d="M24,6c9.9,0,18,8.1,18,18s-8.1,18-18,18c-9.9,0-18-8.1-18-18S14.1,6,24,6 M24,4C13,4,4,13,4,24s9,20,20,20c11,0,20-9,20-20
		S35,4,24,4L24,4z"/>
	<g>
		<path d="M34,26.6V34h-4.3v-6.9c0-1.7-0.6-2.9-2.2-2.9c-1.2,0-1.9,0.8-2.2,1.6c-0.1,0.3-0.1,0.7-0.1,1V34h-4.3c0,0,0.1-11.7,0-12.9
			h4.3v1.8c0,0,0,0,0,0h0v0c0.6-0.9,1.6-2.1,3.9-2.1C31.9,20.8,34,22.6,34,26.6L34,26.6z M16.4,14.9c-1.5,0-2.4,1-2.4,2.2
			c0,1.2,0.9,2.2,2.4,2.2h0c1.5,0,2.4-1,2.4-2.2C18.8,15.9,17.9,14.9,16.4,14.9L16.4,14.9z M14.3,34h4.3V21.1h-4.3V34z M14.3,34"/>
	</g>
</svg>
