<svg id="Layer_2" data-name="Layer 2" xmlns="http://www.w3.org/2000/svg" width="48" height="48" viewBox="0 0 48 48"><title>Icon-Filled</title><path d="M24,43A19,19,0,1,1,43,24,19,19,0,0,1,24,43Z" fill="#fff"/><path d="M24,6A18,18,0,1,1,6,24,18,18,0,0,1,24,6m0-2A20,20,0,1,0,44,24,20,20,0,0,0,24,4Z"/><path d="M34,26.6V34H29.7V27.1c0-1.7-.6-2.9-2.2-2.9a2.31,2.31,0,0,0-2.2,1.6,3.4,3.4,0,0,0-.1,1V34H20.9s.1-11.7,0-12.9h4.3v1.8h0a4.28,4.28,0,0,1,3.9-2.1c2.8,0,4.9,1.8,4.9,5.8ZM16.4,14.9a2.21,2.21,0,1,0,0,4.4h0a2.21,2.21,0,1,0,0-4.4ZM14.3,34h4.3V21.1H14.3Z"/></svg>