<svg xmlns="http://www.w3.org/2000/svg" viewBox="0 0 40 34"><title>Icon--list-view-black-48x48</title><rect x="10" y="3" width="30" height="2"/><path d="M8,15a4,4,0,1,1,4-4A4,4,0,0,1,8,15ZM8,9a2,2,0,1,0,2,2A2,2,0,0,0,8,9Z" transform="translate(-4 -7)"/><path d="M8,28a4,4,0,1,1,4-4A4,4,0,0,1,8,28Zm0-6a2,2,0,1,0,2,2A2,2,0,0,0,8,22Z" transform="translate(-4 -7)"/><path d="M8,41a4,4,0,1,1,4-4A4,4,0,0,1,8,41Zm0-6a2,2,0,1,0,2,2A2,2,0,0,0,8,35Z" transform="translate(-4 -7)"/><rect x="10" y="16" width="30" height="2"/><rect x="10" y="29" width="30" height="2"/></svg>