<?xml version="1.0" encoding="UTF-8" standalone="no"?>
<svg width="26px" height="26px" viewBox="0 0 26 26" version="1.1" xmlns="http://www.w3.org/2000/svg" xmlns:xlink="http://www.w3.org/1999/xlink">
    <!-- Generator: Sketch 44.1 (41455) - http://www.bohemiancoding.com/sketch -->
    <title>IC-logout</title>
    <desc>Created with Sketch.</desc>
    <defs></defs>
    <g id="05_CIAM_AccountSettings" stroke="none" stroke-width="1" fill="none" fill-rule="evenodd">
        <g id="05_L_CIAM_AccountSettings" transform="translate(-137.000000, -689.000000)" fill-rule="nonzero" fill="#000000">
            <g id="Account-info-Copy" transform="translate(115.000000, 672.000000)">
                <g id="HL" transform="translate(5.000000, 0.000000)">
                    <g id="IC-smart-home">
                        <g id="IC-logout" transform="translate(30.000000, 30.500000) scale(-1, 1) translate(-30.000000, -30.500000) translate(17.000000, 17.000000)">
                            <polygon id="Shape" transform="translate(20.036049, 13.158889) scale(-1, 1) translate(-20.036049, -13.158889) " points="20.9508642 8.17234568 20.045679 9.08074074 23.4802469 12.5185185 14.1330864 12.5185185 14.1330864 13.8024691 23.4802469 13.8024691 20.045679 17.237037 20.9508642 18.1454321 25.9390123 13.1604938"></polygon>
                            <path d="M13.1669136,26 C7.35430711,26.0041461 2.2639606,22.1027881 0.757159143,16.4888803 C-0.749642309,10.8749725 1.70300818,4.94903564 6.73647514,2.04204035 C11.7699421,-0.864954934 18.1285094,-0.0277906414 22.2380247,4.08296296 L21.3296296,4.99135802 C18.0248242,1.68633339 13.0545136,0.697548644 8.73640434,2.48608418 C4.41829508,4.27461972 1.60279144,8.48824309 1.60279144,13.1620988 C1.60279144,17.8359544 4.41829508,22.0495778 8.73640434,23.8381133 C13.0545136,25.6266489 18.0248242,24.6378641 21.3296296,21.3328395 L21.3296296,21.3328395 L22.2380247,22.2412346 C19.8345626,24.6507201 16.5701825,26.0033701 13.1669136,26 Z" id="Shape"></path>
                        </g>
                    </g>
                </g>
            </g>
        </g>
    </g>
</svg>