<?xml version="1.0" encoding="utf-8"?>
<!-- Generator: Adobe Illustrator 19.2.0, SVG Export Plug-In . SVG Version: 6.00 Build 0)  -->
<svg version="1.1" xmlns="http://www.w3.org/2000/svg" xmlns:xlink="http://www.w3.org/1999/xlink" x="0px" y="0px"
	 viewBox="0 0 48 48" enable-background="new 0 0 48 48" xml:space="preserve">
	<path d="M30,10c1.1,0,2,0.9,2,2v24c0,1.1-0.9,2-2,2H18c-1.1,0-2-0.9-2-2V12c0-1.1,0.9-2,2-2H30 M30,8H18c-2.2,0-4,1.8-4,4v24
		c0,2.2,1.8,4,4,4h12c2.2,0,4-1.8,4-4V12C34,9.8,32.2,8,30,8L30,8z"/>
	<circle cx="24" cy="35" r="1.5"/>
</svg>
