<svg xmlns="http://www.w3.org/2000/svg" viewBox="0 0 40 33"><title>Icon--my-product-black-48x48</title><path d="M37.06,13a1.44,1.44,0,0,0-.34-0.28l-2.6-1.5-1.78-.95a2.24,2.24,0,0,0-1.5-.22C30.6,7.56,29.21,7,28,7H11.65C9.58,7,9,9,8.67,9.85L4.12,26.07a4,4,0,0,0,1,3.78,2.58,2.58,0,0,1,.23.23A2.35,2.35,0,0,0,6.94,31H7v3.44A5.77,5.77,0,0,0,12.39,40H21V38H12.39A3.78,3.78,0,0,1,9,34.44V31h2.11c1.83,0,2.52-1.27,3-2.56L16.24,21h2l0.28,3.39,2-.17L20.23,21h8.08c0.82,0,2.11-.46,2.47-3.15a3.26,3.26,0,0,0,.63.07,2,2,0,0,0,1-.28l4.28-2.42A1.38,1.38,0,0,0,37,15h7V13H37.06ZM29,12v4.26c0,2.07-.53,2.75-0.69,2.75H14.77l-2.55,8.82c-0.4,1.13-.65,1.18-1.11,1.18H7a3.69,3.69,0,0,1-.33-0.32,4.67,4.67,0,0,0-.42-0.4A2.17,2.17,0,0,1,6,26.62l4.54-16.19C11,9,11.36,9,11.65,9H28c0.4,0,1,0,1,1.84V12Zm2.47,3.91-0.08,0a0.3,0.3,0,0,0-.13,0l0-3.86A0.22,0.22,0,0,1,31.4,12l0.09,0L33.22,13l1.69,1Z" transform="translate(-4 -7)"/></svg>