<?xml version="1.0" encoding="utf-8"?>
<!-- Generator: Adobe Illustrator 19.1.0, SVG Export Plug-In . SVG Version: 6.00 Build 0)  -->
<svg version="1.1" xmlns="http://www.w3.org/2000/svg" xmlns:xlink="http://www.w3.org/1999/xlink" x="0px" y="0px" width="48px"
	 height="48px" viewBox="0 0 48 48" enable-background="new 0 0 48 48" xml:space="preserve">
	<rect x="3.5" y="17" fill="none" width="41" height="21.3"/>
	<text transform="matrix(1 0 0 1 3.5 23.0239)" display="none"><tspan x="0" y="0" display="inline" font-family="'BoschSans-Bold'" font-size="8px">Pin</tspan><tspan x="0" y="9.6" display="inline" font-family="'BoschSans-Bold'" font-size="8px">It02</tspan></text>
	<g>
		<path fill="#000000" d="M24,6c9.9,0,18,8.1,18,18s-8.1,18-18,18S6,33.9,6,24S14.1,6,24,6 M24,4C13,4,4,13,4,24s9,20,20,20
			s20-9,20-20S35,4,24,4L24,4z"/>
	</g>
	<g>
		<path fill="#000000" d="M22.3,27.2c-0.1,0.7-0.3,1.3-0.4,1.9c-0.3,1.3-0.7,2.5-1.4,3.6c-0.3,0.5-0.7,0.9-1.2,1.3
			c0-0.6-0.1-1-0.1-1.5c-0.1-2,0.3-3.9,0.8-5.8c0.3-1,0.5-2,0.8-3c0-0.2,0-0.4,0-0.5c-0.5-1.4-0.4-2.7,0.4-3.9c0.4-0.6,1-1,1.8-0.9
			c1,0.2,1.5,0.8,1.3,1.7c-0.1,0.8-0.4,1.6-0.5,2.3c-0.2,0.7-0.4,1.3-0.5,2c-0.2,1.4,0.6,2.1,2,2c1.1-0.1,1.8-0.7,2.3-1.5
			c1.2-2,1.5-4.2,0.8-6.5c-0.5-1.4-1.6-2.1-2.9-2.5c-3.1-0.8-6.6,1.4-7.1,4.6c-0.2,1-0.1,1.9,0.5,2.8c0.4,0.6,0.5,1.2,0.2,1.9
			c-0.1,0.3-0.3,0.4-0.6,0.3c-1.3-0.4-2-1.3-2.3-2.6c-0.4-2.2,0-4.3,1.4-6c1.6-1.9,3.7-2.8,6.2-2.9c1.7,0,3.4,0.3,4.9,1.3
			c1.7,1.1,2.7,2.7,2.8,4.8c0.1,2.3-0.3,4.4-1.7,6.2c-1.2,1.5-2.8,2.3-4.7,2.2c-0.7,0-1.2-0.3-1.8-0.7
			C22.9,27.6,22.7,27.5,22.3,27.2z"/>
	</g>
</svg>
