<?xml version="1.0" encoding="utf-8"?>
<!-- Generator: Adobe Illustrator 19.2.0, SVG Export Plug-In . SVG Version: 6.00 Build 0)  -->
<svg version="1.1" xmlns="http://www.w3.org/2000/svg" xmlns:xlink="http://www.w3.org/1999/xlink" x="0px" y="0px"
	 viewBox="0 0 48 48" enable-background="new 0 0 48 48" xml:space="preserve">
	<polyline fill="none" stroke="#000000" stroke-width="2" stroke-miterlimit="10" points="9,21 24,32.4 39,21 	"/>
	<g>
		<path fill="none" stroke="#000000" stroke-width="2" stroke-linecap="round" stroke-linejoin="round" stroke-miterlimit="10" d="
			M29.5,23l-5.6-8.4c-2.2-4.1,0.4-9.2,5-9.6c0.2,0,0.4,0,0.6,0c0.2,0,0.4,0,0.6,0c4.6,0.4,7.2,5.5,5,9.6L29.5,23z"/>

			<circle fill="none" stroke="#000000" stroke-width="2" stroke-linecap="round" stroke-linejoin="round" stroke-miterlimit="10" cx="29.5" cy="10.9" r="2.6"/>
	</g>
	<path fill="none" stroke="#000000" stroke-width="2" stroke-miterlimit="10" d="M24,21H9v3.5v15c0,1.9,1.6,3.5,3.5,3.5h22.9
		c1.9,0,3.5-1.6,3.5-3.5V21h-4"/>
</svg>
