<?xml version="1.0" encoding="utf-8"?>
<!-- Generator: Adobe Illustrator 19.2.0, SVG Export Plug-In . SVG Version: 6.00 Build 0)  -->
<svg version="1.1" xmlns="http://www.w3.org/2000/svg" xmlns:xlink="http://www.w3.org/1999/xlink" x="0px" y="0px"
	 viewBox="0 0 48 48" enable-background="new 0 0 48 48" xml:space="preserve">
	<path d="M26.6,31.4c0,1.4-1.1,2.6-2.6,2.6c-1.5,0-2.6-1.1-2.6-2.6c0-1.5,1.2-2.6,2.6-2.6C25.4,28.8,26.6,30,26.6,31.4z"/>
	<path d="M24,6c9.9,0,18,8.1,18,18s-8.1,18-18,18S6,33.9,6,24S14.1,6,24,6 M24,4C13,4,4,13,4,24s9,20,20,20s20-9,20-20S35,4,24,4
		L24,4z"/>
	<polygon points="21.5,20 21.5,14 26.5,14 26.5,20 25.4,27 22.6,27 	"/>
</svg>
