<svg xmlns="http://www.w3.org/2000/svg" viewBox="0 0 40 40"><title>Icon--promotion-black-48x48</title><path d="M23.06,21.55a2.9,2.9,0,0,1-2.95,3.19,2.86,2.86,0,0,1-2.9-3.16A2.93,2.93,0,1,1,23.06,21.55Zm-4,0c0,1.06.35,1.6,1,1.6s1.06-.55,1.06-1.6-0.36-1.6-1-1.6S19.1,20.5,19.1,21.57Zm7.26-3h1.72l-6,10.8H20.33Zm4.85,7.75a2.92,2.92,0,0,1-3,3.19,2.85,2.85,0,0,1-2.9-3.15A2.94,2.94,0,1,1,31.21,26.3Zm-4,0c0,1.06.35,1.6,1,1.6s1.06-.55,1.06-1.6-0.36-1.6-1-1.6S27.25,25.25,27.25,26.33Z" transform="translate(-4 -4)"/><path d="M24,6A18,18,0,1,1,6,24,18,18,0,0,1,24,6m0-2A20,20,0,1,0,44,24,20,20,0,0,0,24,4h0Z" transform="translate(-4 -4)"/></svg>