<svg xmlns="http://www.w3.org/2000/svg" viewBox="0 0 22 22">
  <g transform="matrix(1.25,0,0,-1.25,0,22)">
    <g transform="matrix(.040002 0 0 .040002 .8 .8)">
      <path d="m374.77 25.195c-6.719-6.7187-18.457-6.7187-25.176 0l-141.27 141.26c9.528 7.223 18.004 15.707 25.227 25.234l141.22-141.21c6.972-6.9727 6.972-18.309 0-25.281zm-354.77 244.78c0 60.653 49.348 110 110 110s110-49.347 110-110c0-60.656-49.348-110-110-110s-110 49.344-110 110zm368.91-205.36-144.24 144.24c9.76 18.23 15.33 39.03 15.33 61.12 0 71.68-58.316 130-130 130s-130-58.32-130-130c0-71.679 58.316-130 130-130 22.105 0 42.922 5.579 61.164 15.352l144.29-144.28c7.37-7.3703 17.05-11.05 26.73-11.05 9.675 0 19.351 3.6797 26.726 11.055 14.766 14.766 14.766 38.797 0 53.562"/>
    </g>
  </g>
</svg>
