<svg id="Icons" xmlns="http://www.w3.org/2000/svg" width="40" height="40" viewBox="0 0 40 40"><title>share-circle1</title><path id="white_background" data-name="white background" d="M20,2A18,18,0,1,1,2,20,18.05,18.05,0,0,1,20,2m0-2A20,20,0,1,0,40,20,20.06,20.06,0,0,0,20,0Z"/><path d="M13.3,18.5A1.5,1.5,0,1,1,11.8,20h0a1.54,1.54,0,0,1,1.5-1.5h0m0-2A3.5,3.5,0,1,0,16.8,20h0a3.54,3.54,0,0,0-3.5-3.5Z"/><path d="M26.1,12.1a1.5,1.5,0,1,1-1.5,1.5h0a1.54,1.54,0,0,1,1.5-1.5m0-2a3.5,3.5,0,1,0,3.5,3.5A3.54,3.54,0,0,0,26.1,10.1Z"/><path d="M26.1,24.9a1.5,1.5,0,1,1-1.5,1.5h0a1.54,1.54,0,0,1,1.5-1.5m0-2a3.5,3.5,0,1,0,3.5,3.5A3.54,3.54,0,0,0,26.1,22.9Z"/><rect x="15.19" y="15.3" width="8.4" height="2" transform="translate(-5.16 10.05) rotate(-25.77)"/><rect x="18.37" y="19.34" width="2" height="8.4" transform="translate(-10.25 30.72) rotate(-64.17)"/></svg>