<?xml version="1.0" encoding="utf-8"?>
<svg version="1.1" id="Icons" xmlns="http://www.w3.org/2000/svg" xmlns:xlink="http://www.w3.org/1999/xlink" x="0px" y="0px"
	 viewBox="0 0 48 48" style="enable-background:new 0 0 48 48;" xml:space="preserve">
<path class="st0" d="M24,4C13,4,4,13,4,24s9,20,20,20s20-9,20-20S35,4,24,4z" style="fill:#FFFFFF;"/>
<path id="white_background" class="st1" d="M24,6c9.9,0,18,8.1,18,18s-8.1,18-18,18S6,33.9,6,24S14.1,6,24,6 M24,4C13,4,4,13,4,24
	s9,20,20,20s20-9,20-20S35,4,24,4z"/>
<path class="st1" d="M17.3,22.5c0.8,0,1.5,0.7,1.5,1.5s-0.7,1.5-1.5,1.5s-1.5-0.7-1.5-1.5l0,0C15.8,23.2,16.5,22.5,17.3,22.5
	L17.3,22.5 M17.3,20.5c-1.9,0-3.5,1.6-3.5,3.5s1.6,3.5,3.5,3.5s3.5-1.6,3.5-3.5l0,0C20.8,22.1,19.2,20.5,17.3,20.5L17.3,20.5z"/>
<path class="st1" d="M30.1,16.1c0.8,0,1.5,0.7,1.5,1.5s-0.7,1.5-1.5,1.5s-1.5-0.7-1.5-1.5l0,0C28.6,16.8,29.3,16.1,30.1,16.1
	 M30.1,14.1c-1.9,0-3.5,1.6-3.5,3.5s1.6,3.5,3.5,3.5s3.5-1.6,3.5-3.5S32,14.1,30.1,14.1z"/>
<path class="st1" d="M30.1,28.9c0.8,0,1.5,0.7,1.5,1.5s-0.7,1.5-1.5,1.5s-1.5-0.7-1.5-1.5l0,0C28.6,29.6,29.3,28.9,30.1,28.9
	 M30.1,26.9c-1.9,0-3.5,1.6-3.5,3.5s1.6,3.5,3.5,3.5s3.5-1.6,3.5-3.5S32,26.9,30.1,26.9z"/>
<rect x="19.2" y="19.3" transform="matrix(0.9006 -0.4347 0.4347 0.9006 -6.5068 12.1893)" class="st1" width="8.4" height="2"/>
<rect x="22.4" y="23.3" transform="matrix(0.4358 -0.9001 0.9001 0.4358 -11.5768 36.6143)" class="st1" width="2" height="8.4"/>
</svg>
