<svg id="INCONS_NL_ADDITIONAL" xmlns="http://www.w3.org/2000/svg" viewBox="0 0 79.14 73.86"><title>IC-shopping-cart2</title><g id="Ic-shopping-cart2"><circle cx="21.21" cy="65.41" r="4.45" fill="none"/><polygon points="73.93 16.46 16.45 16.46 20.52 46.28 65.95 46.28 73.93 16.46" fill="none"/><circle cx="63.41" cy="65.41" r="4.45" fill="none"/><path d="M71.84,68a8.46,8.46,0,0,0-8.34,7.12H38a8.46,8.46,0,0,0-7.56-7.08l-.92-6.72h48L87.57,23.53H24.33l-1.7-12.46H8.43v4H19.14l7.31,53.58A8.45,8.45,0,1,0,37.65,79.15H63.82a8.45,8.45,0,1,0,8-11.12Zm-47-40.5H82.36l-8,29.82H29Zm4.76,53.4a4.45,4.45,0,1,1,4.45-4.45A4.46,4.46,0,0,1,29.64,80.93Zm42.2,0a4.45,4.45,0,1,1,4.45-4.45A4.46,4.46,0,0,1,71.84,80.93Z" transform="translate(-8.43 -11.07)"/></g></svg>