<?xml version="1.0" encoding="utf-8"?>
<!-- Generator: Adobe Illustrator 19.2.0, SVG Export Plug-In . SVG Version: 6.00 Build 0)  -->
<svg version="1.1" xmlns="http://www.w3.org/2000/svg" xmlns:xlink="http://www.w3.org/1999/xlink" x="0px" y="0px"
	 viewBox="0 0 48 48" enable-background="new 0 0 48 48" xml:space="preserve">
	<g>
		<polygon points="29,40 27,40 27,17 17,17 17,24 15,24 15,15 29,15 		"/>
	</g>
	<g>
		<path d="M41,41H7V23h10v16h22V26.5l-5-4.2l-5.4,4.5l-1.3-1.5l6.6-5.5l7,5.8V41z M9,39h6V25H9V39z"/>
	</g>
	<g>
		<rect x="19" y="19" width="2" height="2"/>
	</g>
	<g>
		<rect x="23" y="19" width="2" height="2"/>
	</g>
	<g>
		<rect x="19" y="23" width="2" height="2"/>
	</g>
	<g>
		<rect x="23" y="23" width="2" height="2"/>
	</g>
	<g>
		<rect x="19" y="27" width="2" height="2"/>
	</g>
	<g>
		<rect x="23" y="27" width="2" height="2"/>
	</g>
	<g>
		<rect x="19" y="31" width="2" height="2"/>
	</g>
	<g>
		<rect x="23" y="31" width="2" height="2"/>
	</g>
	<g>
		<rect x="19" y="35" width="2" height="2"/>
	</g>
	<g>
		<rect x="11" y="27" width="2" height="2"/>
	</g>
	<g>
		<rect x="11" y="31" width="2" height="2"/>
	</g>
	<g>
		<rect x="11" y="35" width="2" height="2"/>
	</g>
	<g>
		<rect x="23" y="35" width="2" height="2"/>
	</g>
	<g>
		<rect x="31" y="27" width="2" height="2"/>
	</g>
	<g>
		<rect x="35" y="27" width="2" height="2"/>
	</g>
	<g>
		<rect x="31" y="31" width="2" height="2"/>
	</g>
	<g>
		<rect x="35" y="31" width="2" height="2"/>
	</g>
	<g>
		<rect x="31" y="35" width="2" height="2"/>
	</g>
	<g>
		<rect x="35" y="35" width="2" height="2"/>
	</g>
	<g>
		<path d="M35,17h-2c0-2.8-2.2-5-5-5v-2C31.9,10,35,13.1,35,17z"/>
	</g>
	<g>
		<path d="M38,17h-2c0-4.4-3.6-8-8-8V7C33.5,7,38,11.5,38,17z"/>
	</g>
	<g>
		<path d="M41,17h-2c0-6.1-4.9-11-11-11V4C35.2,4,41,9.8,41,17z"/>
	</g>
</svg>
