<?xml version="1.0" encoding="utf-8"?>
<!-- Generator: Adobe Illustrator 19.2.0, SVG Export Plug-In . SVG Version: 6.00 Build 0)  -->
<svg version="1.1" xmlns="http://www.w3.org/2000/svg" xmlns:xlink="http://www.w3.org/1999/xlink" x="0px" y="0px"
	 viewBox="0 0 48 48" enable-background="new 0 0 48 48" xml:space="preserve">
	<path d="M30,16c1.1,0,2,0.9,2,2v12c0,1.1-0.9,2-2,2H18c-1.1,0-2-0.9-2-2V18c0-1.1,0.9-2,2-2H30 M30,14H18c-2.2,0-4,1.8-4,4v12
		c0,2.2,1.8,4,4,4h12c2.2,0,4-1.8,4-4V18C34,15.8,32.2,14,30,14L30,14z"/>
	<g>
		<path d="M30,16H18V4h12V16z M20,14h8V6h-8V14z"/>
	</g>
	<g>
		<path d="M30,44H18V32h12V44z M20,42h8v-8h-8V42z"/>
	</g>
	<g>
		<rect x="34" y="22" width="2" height="4"/>
	</g>
	<g>
		<path d="M26.5,25.8c-1.4-1.4-3.6-1.4-4.9,0l-1.4-1.4c2.1-2.1,5.6-2.1,7.8,0L26.5,25.8z"/>
	</g>
	<g>
		<path d="M29,23.3c-1.3-1.3-3.1-2.1-5-2.1c-1.9,0-3.6,0.7-4.9,2.1l-1.4-1.4c1.7-1.7,4-2.6,6.4-2.6c2.4,0,4.7,0.9,6.4,2.6L29,23.3z"
			/>
	</g>
	<circle cx="24" cy="28" r="1.5"/>
</svg>
