<?xml version="1.0" encoding="utf-8"?>
<!-- Generator: Adobe Illustrator 19.2.0, SVG Export Plug-In . SVG Version: 6.00 Build 0)  -->
<svg version="1.1" xmlns="http://www.w3.org/2000/svg" xmlns:xlink="http://www.w3.org/1999/xlink" x="0px" y="0px"
	 viewBox="0 0 48 48" enable-background="new 0 0 48 48" xml:space="preserve">
	<g>
		<path d="M23.9,6.4L38,15.1V38H10V15.1L23.9,6.4 M24,4L8,14v26h32V14L24,4L24,4z"/>
	</g>
	<g>
		<path d="M32,23.7c-2.1-2.1-4.9-3.3-8-3.3s-5.8,1.2-7.9,3.3l-1.4-1.4c2.5-2.5,5.8-3.9,9.4-3.9s6.9,1.4,9.4,3.9L32,23.7z"/>
	</g>
	<g>
		<path d="M19.2,26.9l-1.4-1.4c1.7-1.7,3.9-2.6,6.2-2.6c2.3,0,4.6,0.9,6.2,2.6l-1.4,1.4c-1.3-1.3-3-2-4.8-2
			C22.2,24.9,20.5,25.6,19.2,26.9z"/>
	</g>
	<g>
		<path d="M25.7,30c-0.9-0.9-2.4-0.9-3.3,0l-1.4-1.4c1.7-1.7,4.4-1.7,6.1,0L25.7,30z"/>
	</g>
</svg>
