<svg xmlns="http://www.w3.org/2000/svg" viewBox="0 0 26.1 40"><title>Icon--store-locator-black-48x48</title><path d="M24,44a1,1,0,0,1-.88-0.53L12.56,23.75a13.63,13.63,0,0,1,.07-13A12.64,12.64,0,0,1,22.83,4a14.57,14.57,0,0,1,2.34,0,12.64,12.64,0,0,1,10.2,6.71,13.62,13.62,0,0,1,.07,13L24.88,43.47A1,1,0,0,1,24,44ZM24,6q-0.51,0-1,0a10.67,10.67,0,0,0-8.6,5.67,11.63,11.63,0,0,0-.07,11.09L24,40.88l9.67-18.08a11.63,11.63,0,0,0-.07-11.09A10.67,10.67,0,0,0,25,6Q24.51,6,24,6Z" transform="translate(-10.95 -4)"/><path d="M24,22.16a6,6,0,1,1,6-6A6,6,0,0,1,24,22.16Zm0-9.91a4,4,0,1,0,4,4A4,4,0,0,0,24,12.25Z" transform="translate(-10.95 -4)"/></svg>