<?xml version="1.0" encoding="utf-8"?>
<!-- Generator: Adobe Illustrator 19.2.0, SVG Export Plug-In . SVG Version: 6.00 Build 0)  -->
<svg version="1.1" xmlns="http://www.w3.org/2000/svg" xmlns:xlink="http://www.w3.org/1999/xlink" x="0px" y="0px"
	 viewBox="0 0 48 48" enable-background="new 0 0 48 48" xml:space="preserve">
	<path d="M35,6c1.1,0,2,0.9,2,2v32c0,1.1-0.9,2-2,2H13c-1.1,0-2-0.9-2-2V8c0-1.1,0.9-2,2-2H35 M35,4H13c-2.2,0-4,1.8-4,4v32
		c0,2.2,1.8,4,4,4h22c2.2,0,4-1.8,4-4V8C39,5.8,37.2,4,35,4L35,4z"/>
	<circle cx="24" cy="38.5" r="1.5"/>
</svg>
