<?xml version="1.0" encoding="utf-8"?>
<!-- Generator: Adobe Illustrator 19.2.0, SVG Export Plug-In . SVG Version: 6.00 Build 0)  -->
<svg version="1.1" xmlns="http://www.w3.org/2000/svg" xmlns:xlink="http://www.w3.org/1999/xlink" x="0px" y="0px"
	 viewBox="0 0 48 48" enable-background="new 0 0 48 48" xml:space="preserve">
	<g>
		<path d="M34.7,31.5c2.1-2.1,3.3-4.9,3.3-8s-1.2-5.8-3.3-7.9l1.4-1.4c2.5,2.5,3.9,5.8,3.9,9.4s-1.4,6.9-3.9,9.4L34.7,31.5z"/>
	</g>
	<g>
		<path d="M31.6,18.7l1.4-1.4c1.7,1.7,2.6,3.9,2.6,6.2c0,2.3-0.9,4.6-2.6,6.2l-1.4-1.4c1.3-1.3,2-3,2-4.8
			C33.5,21.7,32.8,20,31.6,18.7z"/>
	</g>
	<g>
		<path d="M28.4,25.2c0.9-0.9,0.9-2.4,0-3.3l1.4-1.4c1.7,1.7,1.7,4.4,0,6.1L28.4,25.2z"/>
	</g>
	<g>
		<path d="M21.6,10c0.8,0,1.7,0,2.4,0v5h-4h-2v2v14v2h2h4v5c-0.7,0-1.6,0-2.4,0c-1,0-2,0-2.6,0c-1.8,0-3-1.2-3-3V13c0-1.8,1.2-3,3-3
			C19.6,10,20.6,10,21.6,10 M21.6,8c-1,0-2,0-2.6,0c-3,0-5,2.1-5,5c0,1.3,0,20.6,0,22c0,2.9,2,5,5,5c0.6,0,1.6,0,2.6,0
			c2.1,0,4.4,0,4.4,0v-9h-6V17h6V8C26,8,23.7,8,21.6,8L21.6,8z"/>
	</g>
</svg>
