<?xml version="1.0" encoding="utf-8"?>
<!-- Generator: Adobe Illustrator 19.2.0, SVG Export Plug-In . SVG Version: 6.00 Build 0)  -->
<svg version="1.1" xmlns="http://www.w3.org/2000/svg" xmlns:xlink="http://www.w3.org/1999/xlink" x="0px" y="0px" viewBox="0 0 48 48" enable-background="new 0 0 48 48" xml:space="preserve">
  <path d="M24,6c9.9,0,18,8.1,18,18s-8.1,18-18,18c-9.9,0-18-8.1-18-18S14.1,6,24,6 M24,4C13,4,4,13,4,24s9,20,20,20c11,0,20-9,20-20
		S35,4,24,4L24,4z"/>
  <g>
    <path
      d="M27.1,30.7c-0.6,0-1.1-0.1-1.5-0.4c-0.3-0.2-0.6-0.5-0.7-0.8c-0.1-0.3-0.2-1.1-0.2-2.2v-5.1h4.7v-3.1h-4.7V14h-2.9
			c-0.1,1-0.4,1.9-0.7,2.6c-0.3,0.7-0.8,1.2-1.3,1.7c-0.6,0.5-1.2,0.8-2,1.1v2.8h2.2v7c0,0.9,0.1,1.6,0.3,2.1c0.2,0.5,0.5,0.9,1,1.4
			c0.5,0.4,1.1,0.8,1.8,1c0.7,0.2,1.5,0.4,2.4,0.4c0.8,0,1.6-0.1,2.3-0.2c0.7-0.1,1.4-0.4,2.3-0.8v-3.2
			C29.2,30.4,28.2,30.7,27.1,30.7L27.1,30.7z M27.1,30.7"/>
  </g>
  <title>tumblr</title>
</svg>
