<?xml version="1.0" encoding="utf-8"?>
<!-- Generator: Adobe Illustrator 19.1.0, SVG Export Plug-In . SVG Version: 6.00 Build 0)  -->
<svg version="1.1" xmlns="http://www.w3.org/2000/svg" xmlns:xlink="http://www.w3.org/1999/xlink" x="0px" y="0px" width="48px"
	 height="48px" viewBox="0 0 48 48" enable-background="new 0 0 48 48" xml:space="preserve">
	<g>
		<path fill="#000000" d="M24,6c9.9,0,18,8.1,18,18s-8.1,18-18,18S6,33.9,6,24S14.1,6,24,6 M24,4C13,4,4,13,4,24s9,20,20,20
			s20-9,20-20S35,4,24,4L24,4z"/>
	</g>
	<path fill="#000000" d="M23.9,20.9c-3.4-0.5-5.1-1-8.7-4.3c0,0-1.8,2.8,1.2,5.5c0,0-1.4-0.1-1.8-0.5c0,0-0.2,2.9,3.1,4
		c0,0-0.3,0.8-1.6,0.7c0,0,0.6,1.9,3.7,2.4c0,0-2.1,2.1-6,1.7c0,0,3.5,3,10,1.4c5.4-1.4,7.7-7.7,7.7-7.7s0.7-2.3,0.5-4.2
		c0,0,1.3-1,2.1-2.1l-2.3,0.6c0,0,1.4-1,1.7-2.2L31,17.2c0,0-1.1-1.7-3.7-1.4c-0.8,0.1-1.4,0.4-1.9,0.8c-1.1,0.8-1.6,2.1-1.6,3.5
		L23.9,20.9z"/>
</svg>
