<?xml version="1.0" encoding="utf-8"?>
<!-- Generator: Adobe Illustrator 20.0.0, SVG Export Plug-In . SVG Version: 6.00 Build 0)  -->
<svg version="1.1" id="Icons" xmlns="http://www.w3.org/2000/svg" xmlns:xlink="http://www.w3.org/1999/xlink" x="0px" y="0px"
	 width="20.7px" height="17px" viewBox="0 0 20.7 17" enable-background="new 0 0 20.7 17" xml:space="preserve">
<path fill="#1DA1F2" d="M10.2,5.3c-3.4-0.5-5.1-1-8.7-4.3c0,0-1.8,2.8,1.2,5.5c0,0-1.4-0.1-1.8-0.5c0,0-0.2,2.9,3.1,4
	c0,0-0.3,0.8-1.6,0.7c0,0,0.6,1.9,3.7,2.4c0,0-2.1,2.1-6,1.7c0,0,3.5,3,10,1.4c5.4-1.4,7.7-7.7,7.7-7.7s0.7-2.3,0.5-4.2
	c0,0,1.3-1,2.1-2.1l-2.3,0.6c0,0,1.4-1,1.7-2.2l-2.6,0.9c0,0-1.1-1.7-3.7-1.4c-0.8,0.1-1.4,0.4-1.9,0.8c-1.1,0.8-1.6,2.1-1.6,3.5
	L10.2,5.3z"/>
</svg>
