<svg id="Layer_2" data-name="Layer 2" xmlns="http://www.w3.org/2000/svg" width="48" height="48" viewBox="0 0 48 48"><title>Icon-Filled</title><path d="M24,43A19,19,0,1,1,43,24,19,19,0,0,1,24,43Z" fill="#fff"/><path d="M24,6A18,18,0,1,1,6,24,18,18,0,0,1,24,6m0-2A20,20,0,1,0,44,24,20,20,0,0,0,24,4Z"/><path d="M23.87,20.85c-3.43-.47-5.15-1-8.66-4.29,0,0-1.84,2.83,1.24,5.53a4.82,4.82,0,0,1-1.79-.47,4.13,4.13,0,0,0,3.08,4s-.3.82-1.63.73c0,0,.6,1.93,3.69,2.36a7.33,7.33,0,0,1-6,1.67s3.47,3,10,1.42c5.4-1.42,7.72-7.69,7.72-7.69a13.44,13.44,0,0,0,.51-4.23,11.19,11.19,0,0,0,2.06-2.1l-2.27.6a5.36,5.36,0,0,0,1.72-2.19L31,17.17a3.86,3.86,0,0,0-3.69-1.42,3.72,3.72,0,0,0-1.91.75A4.12,4.12,0,0,0,23.84,20Z"/></svg>