<?xml version="1.0" standalone="no"?>
<!DOCTYPE svg PUBLIC "-//W3C//DTD SVG 20010904//EN"
 "http://www.w3.org/TR/2001/REC-SVG-20010904/DTD/svg10.dtd">
<svg version="1.0" xmlns="http://www.w3.org/2000/svg"
 width="89.000000pt" height="89.000000pt" viewBox="0 0 89.000000 89.000000"
 preserveAspectRatio="xMidYMid meet">
<metadata>
Created by potrace 1.15, written by Peter Selinger 2001-2017
</metadata>
<g transform="translate(0.000000,89.000000) scale(0.100000,-0.100000)"
fill="#000000" stroke="none">
<path d="M60 521 c0 -296 -14 -275 184 -279 l146 -3 0 25 0 26 -123 0 c-82 0
-127 4 -135 12 -9 9 -12 68 -12 205 l0 193 88 0 c85 0 89 -1 117 -30 l29 -30
208 0 208 0 0 -159 c0 -132 -3 -162 -16 -175 -12 -13 -40 -16 -140 -16 l-124
0 0 -25 0 -25 139 0 c125 0 141 2 165 21 l26 20 0 210 0 209 -223 0 -224 0
-23 25 c-23 24 -28 25 -157 25 l-133 0 0 -229z"/>
<path d="M382 407 c-56 -57 -60 -68 -37 -87 13 -11 21 -8 45 15 l30 29 0 -112
0 -112 25 0 25 0 0 113 1 112 24 -30 25 -30 22 23 23 22 -57 55 c-31 30 -61
55 -65 55 -5 0 -32 -24 -61 -53z"/>
</g>
</svg>
