<svg id="Ebene_1" data-name="Ebene 1" xmlns="http://www.w3.org/2000/svg" viewBox="0 0 20 20"><title>IC_User</title><g id="Symbols"><g id="IC_gd_User" data-name="IC gd User"><g id="Page-1"><path id="Fill-1" d="M10,7A2.65,2.65,0,1,0,12.65,9.6,2.65,2.65,0,0,0,10,7m0,6.3A3.65,3.65,0,1,1,13.65,9.6,3.65,3.65,0,0,1,10,13.25"/><path id="Fill-3" d="M15.45,18h-1A4.21,4.21,0,0,0,10,13.5,4.21,4.21,0,0,0,5.55,18h-1A5.21,5.21,0,0,1,10,12.5,5.21,5.21,0,0,1,15.45,18"/><g id="Group-7"><path id="Fill-5" d="M10,1a9,9,0,1,1-9,9,9,9,0,0,1,9-9m0-1A10,10,0,1,0,20,10,10,10,0,0,0,10,0"/></g></g></g></g></svg>