<?xml version="1.0" encoding="utf-8"?>
<!-- Generator: Adobe Illustrator 19.2.0, SVG Export Plug-In . SVG Version: 6.00 Build 0)  -->
<svg version="1.1" xmlns="http://www.w3.org/2000/svg" xmlns:xlink="http://www.w3.org/1999/xlink" x="0px" y="0px"
	 viewBox="0 0 48 48" enable-background="new 0 0 48 48" xml:space="preserve">
	<path d="M24,6c9.9,0,18,8.1,18,18s-8.1,18-18,18c-9.9,0-18-8.1-18-18S14.1,6,24,6 M24,4C13,4,4,13,4,24s9,20,20,20c11,0,20-9,20-20
		S35,4,24,4L24,4z"/>
	<g>
		<path d="M32.8,23.9c-0.5,0.1-1,0.2-1.5,0.2c-2.5,0-4.5-1.8-4.5-4.8c0-1.5,0.6-2.3,1.4-2.3c0.8,0,1.3,0.7,1.3,2.1
			c0,0.8-0.2,1.7-0.4,2.2c0,0,0.8,1.4,2.9,0.9c0.5-1,0.7-2.3,0.7-3.4c0-3.1-1.6-4.8-4.4-4.8c-2.9,0-4.7,2.3-4.7,5.2
			c0,3,1.4,5.5,3.7,6.7c-1,1.9-2.2,3.6-3.4,4.9c-2.3-2.8-4.4-6.5-5.2-13.8h-3.4c1.6,12.1,6.3,15.9,7.5,16.7c0.7,0.4,1.3,0.4,1.9,0
			c1-0.6,4-3.6,5.7-7.1c0.7,0,1.5-0.1,2.4-0.3V23.9L32.8,23.9z"/>
	</g>
<title>vine</title>
</svg>
