<?xml version="1.0" encoding="utf-8"?>
<!-- Generator: Adobe Illustrator 19.2.0, SVG Export Plug-In . SVG Version: 6.00 Build 0)  -->
<svg version="1.1" xmlns="http://www.w3.org/2000/svg" xmlns:xlink="http://www.w3.org/1999/xlink" x="0px" y="0px"
	 viewBox="0 0 48 48" enable-background="new 0 0 48 48" xml:space="preserve">
	<g>
		<path d="M35.5,42.8c-0.2,0-0.4-0.1-0.6-0.2L24,34.6l-10.9,7.9c-0.4,0.3-0.8,0.3-1.2,0c-0.4-0.3-0.5-0.7-0.4-1.1l4.2-12.8L4.8,20.8
			c-0.4-0.3-0.5-0.7-0.4-1.1C4.6,19.3,5,19,5.4,19h13.5L23,6.2c0.1-0.4,0.5-0.7,1-0.7s0.8,0.3,1,0.7L29.1,19h13.5
			c0.4,0,0.8,0.3,1,0.7c0.1,0.4,0,0.9-0.4,1.1l-10.9,7.9l4.2,12.8c0.1,0.4,0,0.9-0.4,1.1C35.9,42.7,35.7,42.8,35.5,42.8z M24,32.4
			c0.2,0,0.4,0.1,0.6,0.2l9,6.6l-3.4-10.5c-0.1-0.4,0-0.9,0.4-1.1l9-6.5H28.4c-0.4,0-0.8-0.3-1-0.7L24,9.7l-3.4,10.6
			c-0.1,0.4-0.5,0.7-1,0.7H8.5l9,6.5c0.4,0.3,0.5,0.7,0.4,1.1l-3.4,10.5l9-6.5C23.6,32.5,23.8,32.4,24,32.4z"/>
	</g>
<title>whishlist</title>
</svg>
