<?xml version="1.0" encoding="utf-8"?>
<!-- Generator: Adobe Illustrator 19.2.0, SVG Export Plug-In . SVG Version: 6.00 Build 0)  -->
<svg version="1.1" xmlns="http://www.w3.org/2000/svg" xmlns:xlink="http://www.w3.org/1999/xlink" x="0px" y="0px"
	 viewBox="0 0 48 48" enable-background="new 0 0 48 48" xml:space="preserve">
	<path d="M24,6c9.9,0,18,8.1,18,18s-8.1,18-18,18c-9.9,0-18-8.1-18-18S14.1,6,24,6 M24,4C13,4,4,13,4,24s9,20,20,20c11,0,20-9,20-20
		S35,4,24,4L24,4z"/>
	<g>
		<path d="M26.3,34l-4.5-7.8L28.8,14h4.7l-6.9,12.2L31,34H26.3z M19,28l3.5-5.7l-2.6-4.6h-4.4l2.6,4.6L14.6,28H19z M19,28"/>
	</g>
</svg>
