<?xml version="1.0" encoding="utf-8"?>
<!-- Generator: Adobe Illustrator 19.2.0, SVG Export Plug-In . SVG Version: 6.00 Build 0)  -->
<svg version="1.1" xmlns="http://www.w3.org/2000/svg" xmlns:xlink="http://www.w3.org/1999/xlink" x="0px" y="0px"
	 viewBox="0 0 48 48" enable-background="new 0 0 48 48" xml:space="preserve">
	<path d="M24,6c9.9,0,18,8.1,18,18s-8.1,18-18,18c-9.9,0-18-8.1-18-18S14.1,6,24,6 M24,4C13,4,4,13,4,24s9,20,20,20c11,0,20-9,20-20
		S35,4,24,4L24,4z"/>
	<g>
		<path d="M31.9,17H16.1c-1.1,0-2,0.9-2,2V29c0,1.1,0.9,2,2,2h15.9c1.1,0,2-0.9,2-2V19C34,17.9,33.1,17,31.9,17z M22.2,26.4v-4.3
			l4.5,2.2L22.2,26.4z"/>
	</g>
</svg>
