<?xml version="1.0" encoding="utf-8"?>
<!-- Generator: Adobe Illustrator 19.2.0, SVG Export Plug-In . SVG Version: 6.00 Build 0)  -->
<svg version="1.1" xmlns="http://www.w3.org/2000/svg" xmlns:xlink="http://www.w3.org/1999/xlink" x="0px" y="0px"
	 viewBox="0 0 48 48" enable-background="new 0 0 48 48" xml:space="preserve">
	<path d="M42.9,37.5L28.5,23.1c1-1.8,1.5-3.9,1.5-6.1c0-7.2-5.8-13-13-13C9.8,4,4,9.8,4,17s5.8,13,13,13c2.2,0,4.3-0.6,6.1-1.5
		l14.4,14.4c0.7,0.7,1.7,1.1,2.7,1.1c1,0,1.9-0.4,2.7-1.1C44.4,41.4,44.4,39,42.9,37.5z M6,17c0-6.1,4.9-11,11-11
		c6.1,0,11,4.9,11,11s-4.9,11-11,11C10.9,28,6,23.1,6,17z M41.5,41.5c-0.7,0.7-1.8,0.7-2.5,0L24.8,27.4c1-0.7,1.8-1.6,2.5-2.5
		L41.5,39C42.2,39.6,42.2,40.8,41.5,41.5z"/>
	<g>
		<rect x="11.5" y="16" width="11" height="2"/>
	</g>
</svg>
