<svg xmlns="http://www.w3.org/2000/svg" viewBox="0 0 80 96"><path fill="#FFF" d="M26.1 18c.7 0 1.4 0 2.2.1 8 .6 14.9 5.2 18.6 12.4C51 38 51 47 47 54.6L26.1 94 5.2 54.6c-4-7.6-4-16.6.1-24.1C9 23.4 16 18.8 23.9 18.1c.8-.1 1.5-.1 2.2-.1m0-2c-.8 0-1.5 0-2.3.1-8.6.7-16.3 5.8-20.3 13.5-4.4 8.1-4.4 17.8-.1 25.9l20.9 39.4c.3.6 1 1.1 1.7 1.1s1.4-.4 1.7-1.1l20.9-39.5c4.3-8.1 4.3-17.9-.1-26-4-7.7-11.6-12.7-20.2-13.4h-2.2z"/><path fill="#008ECF" d="M26.1 18c.7 0 1.4 0 2.2.1 8 .6 14.9 5.2 18.6 12.4C51 38 51 47 47 54.6L26.1 94 5.2 54.6c-4-7.6-4-16.6.1-24.1C9 23.4 16 18.8 23.9 18.1c.8-.1 1.5-.1 2.2-.1"/><circle fill="#FFF" cx="26.1" cy="41.3" r="12"/><path fill="#008ECF" d="M60 2c9.9 0 18 8.1 18 18s-8.1 18-18 18-18-8.1-18-18S50.1 2 60 2m0-2C49 0 40 9 40 20s9 20 20 20 20-9 20-20S71 0 60 0z"/><path fill="#FFF" d="M60 2c9.9 0 18 8.1 18 18s-8.1 18-18 18-18-8.1-18-18S50.1 2 60 2"/></svg>