<svg xmlns="http://www.w3.org/2000/svg" width="33" height="50" viewBox="0 0 33 50"><path fill="#005691" d="M16.5 1h1.4c5.1.5 9.6 3.4 12.1 7.9 2.7 4.8 2.7 10.4.1 15.3L16.8 48.8c-.1.2-.2.2-.3.2s-.2 0-.3-.2L2.9 24.2C.3 19.5.4 13.8 3 8.9 5.5 4.4 10 1.5 15.1 1h1.4"/><path fill="#FFF" d="M16.5 1h1.4c5.1.5 9.6 3.4 12.1 7.9 2.7 4.8 2.7 10.4.1 15.3L16.8 48.8c-.1.2-.2.2-.3.2s-.2 0-.3-.2L2.9 24.2C.3 19.5.4 13.8 3 8.9 5.5 4.4 10 1.5 15.1 1h1.4m0-1c-.5 0-1 0-1.5.1C9.6.5 4.7 3.7 2.1 8.5-.7 13.6-.7 19.6 2 24.8l13.4 24.6c.2.4.7.7 1.1.7.5 0 .9-.2 1.1-.7L31 24.7c2.8-5 2.7-11.2-.1-16.2C28.3 3.7 23.5.5 18 .1c-.5 0-1-.1-1.5-.1z"/><ellipse fill="#FFF" cx="16.6" cy="15.5" rx="7.5" ry="7.5"/></svg>